<?xml version="1.0" encoding="UTF-8" standalone="no"?>
<!DOCTYPE svg PUBLIC "-//W3C//DTD SVG 1.1//EN" "http://www.w3.org/Graphics/SVG/1.1/DTD/svg11.dtd">
<svg width="100%" height="100%" viewBox="0 0 1000 1000" version="1.1" xmlns="http://www.w3.org/2000/svg" xmlns:xlink="http://www.w3.org/1999/xlink" xml:space="preserve" xmlns:serif="http://www.serif.com/" style="fill-rule:evenodd;clip-rule:evenodd;stroke-linejoin:round;stroke-miterlimit:2;">
    <g id="ChatGPT-Image-Jun-4--2026--12_01_27-PM.png" serif:id="ChatGPT Image Jun 4, 2026, 12_01_27 PM.png" transform="matrix(1,0,0,1,-7.807462,28.774097)">
        <path d="M161.358,284.11C161.394,281.633 160.279,282.222 158.738,280.28C157.6,278.845 157.766,278.826 156.564,277.451C144.425,263.556 126.045,234.496 118.8,214.39C111.892,195.222 106.628,181.291 123.574,176.811C157.898,167.737 200.044,174.888 200.31,174.421C200.37,174.315 186.43,142.386 186.133,139.671C185.056,129.85 168.368,94.967 197.677,92.865C241.53,89.719 278.773,104.253 285.393,106.836C291.663,109.283 287.585,104.128 286.337,97.539C284.234,86.433 284.77,86.435 284.582,85.478C284.132,83.188 281.117,67.829 285.105,56.302C287.93,48.137 290.195,39.067 306.494,43.521C345.775,54.255 368.651,69.3 371.303,70.838C386.211,79.484 389.604,84.15 389.691,80.54C389.749,78.101 390.205,58.999 394.259,50.389C399.942,38.32 397.485,33.808 410.256,28.093C417.791,24.72 454.954,53.721 472.442,69.568C477.748,74.377 477.824,74.188 478.204,74.673C483.313,81.186 484.28,80.191 489.308,86.674C493.072,91.528 494.098,93.03 496.124,90.197C498.668,86.639 498.448,86.581 501.398,83.411C522.044,61.226 527.85,63.377 537.306,74.69C587.057,134.21 584.031,210.64 584.566,223.501C584.76,228.16 586.732,275.595 589.243,281.591C591.087,285.993 590.644,288.042 591.306,292.531C594.466,313.979 605.697,347.306 610.935,359.242C613.143,364.273 617.134,358.785 620.776,356.892C633.166,350.452 649.274,338.557 676.479,326.444C677.596,325.947 761.732,280.673 844.504,315.492C892.781,335.799 895.434,353.556 906.692,357.037C920.809,361.401 920.811,361.151 934.703,366.058C963.046,376.072 983.634,392.649 986.191,397.662C996.271,417.414 958.443,415.11 919.753,437.965C890.741,455.104 865.861,491.782 896.452,523.541C903.713,531.08 900.708,539.964 898.947,541.805C897.562,543.252 896.677,543.281 895.79,543.9C891.08,547.186 905.228,565.306 867.003,625.181C852.985,647.138 852.598,646.802 835.945,666.912C820.56,685.491 820.112,684.989 804.448,701.445C775.275,732.094 733.444,763.045 726.874,767.905C717.487,774.85 661.726,816.108 606.263,850.109C573.183,870.388 573.369,870.662 570.363,872.189C538.907,888.171 521.054,905.837 513.7,875.447C512.49,870.446 510.242,873.573 508.607,874.649C507.31,875.502 494.001,884.258 492.32,885.201C479.249,892.539 454.211,908.411 445.509,907.395C430.832,905.682 431.34,888.833 429.51,888.455C428.563,888.26 377.692,916.641 325.499,914.516C302.969,913.599 306.203,906.271 303.217,897.632C302.157,894.562 280.28,905.16 243.509,905.27C211.975,905.365 196.959,899.396 192.651,898.042C178.106,893.473 182.796,879.988 182.247,878.621C181.256,876.156 133.936,885.543 83.567,861.364C62.581,851.29 75.123,837.341 90.702,822.74C95.474,818.268 100.107,815.521 96.812,815.038C84.963,813.299 56.203,802.88 43.805,795.035C31.905,787.504 31.625,787.919 30.779,787.035C25.787,781.816 28.433,774.613 28.808,773.592C31.317,766.762 118.525,721.638 142.719,707.741C147.567,704.956 147.765,705.501 152.648,702.769C219.63,665.3 218.795,663.949 224.627,660.715C250.996,646.094 301.818,604.103 309.194,596.227C319.461,585.264 333.748,574.383 332.477,572.521C332.222,572.147 326.96,571.94 326.478,571.922C287.957,570.41 252.796,566.483 202.644,520.345C201.054,518.882 186.24,505.254 213.552,495.634C218.571,493.866 212.492,492.262 206.706,489.152C200.859,486.008 169.578,469.19 142.627,436.412C141.649,435.222 133.2,424.946 130.812,421.205C119.088,402.831 138.971,398.834 143.482,397.45C156.029,393.601 163.716,393.152 161.23,390.73C150.567,380.341 150.03,381 140.261,369.691C125.044,352.076 124.878,352.212 112.849,332.275C98.97,309.272 100.662,303.075 101.374,300.465C105.44,285.572 154.162,283.993 161.358,284.11Z" style="fill:rgb(245,236,218);"/>
        <path d="M208.506,110.888C226.27,110.978 253.852,112.189 288.304,126.951C300.52,132.186 298.868,134.404 304.302,146.59C337.526,221.105 408.981,325.584 486.153,387.949C487.86,389.329 521.458,416.48 508.85,403.367C483.151,376.636 483.344,376.579 457.087,346.848C388.06,268.691 293.219,124.841 301.632,65.519C302.263,61.071 304.729,62.053 308.602,63.126C364.344,78.57 401.034,113.301 402.196,117.582C410.913,149.702 412.822,179.954 460.07,269.727C495.115,336.312 538.773,382.018 539.494,382.512C549.482,389.37 515.374,346.813 495.285,261.553C481.418,202.703 483.023,156.386 483.011,155.501C482.637,129.376 440.08,91.622 437.496,91.571C433.345,91.487 436.694,144.282 446.059,182.601C465.796,263.361 476.234,268.309 476.46,274.499C476.635,279.277 473.052,272.53 472.894,272.231C462.098,251.898 449.844,231.576 436.958,201.326C397.535,108.784 406.065,73.573 408.733,62.563C412.013,49.023 414.752,48.864 418.227,50.961C465.485,79.483 492.961,118.708 495.692,122.339C499.842,127.857 498.4,111.7 516.867,92.861C524.278,85.301 525.893,88.847 528.067,91.805C581.692,164.747 554.846,203.96 577.24,310.549C584.954,347.263 602.66,384.256 605.711,386.068C611.349,389.415 688.484,323.642 767.519,320.827C854.536,317.728 890.221,368.654 892.861,371.125C894.615,372.767 922.042,376.884 945.629,389.262C954.064,393.689 968.653,400.165 961.386,402.13C955.539,403.711 915.097,414.649 893.323,435.305C840.789,485.144 876.428,525.818 879.926,530.308C883.551,534.961 873.474,530.271 873.413,530.281C869.737,530.935 876.644,532.63 876.937,554.502C877.187,573.192 858.384,622.182 791.324,689.323C709.743,771.001 564.32,855.534 537.346,870.227C527.102,875.808 527.317,868.002 527.354,847.502C527.355,846.721 529.032,839.76 524.267,843.109C523.975,843.314 523.999,843.287 520.567,845.598C510.653,852.277 510.669,852.179 500.733,858.843C472.092,878.05 455.667,885.7 451.418,887.259C440.872,891.127 445.197,862.2 444.103,860.745C443.17,859.505 442.88,860.612 435.747,864.898C377.958,899.624 334.657,897.198 325.491,896.684C316.32,896.17 317.95,891.537 320.252,875.477C320.735,872.106 313.087,875.701 308.41,877.232C245.921,897.688 202.764,883.145 200.4,881.634C196.666,879.246 205.37,863.273 207.282,860.393C207.396,860.22 209.256,857.419 206.519,857.918C194.287,860.148 194.34,859.828 178.474,861.185C140.547,864.427 94.793,850.854 95.029,845.463C95.111,843.6 102.233,834.686 116.077,823.022C133.446,808.389 137.45,806.97 138.269,806.275C140.286,804.563 135.784,804.361 135.516,804.349C107.023,803.072 64.133,787.858 55.658,780.303C54.23,779.03 54.431,777.257 74.705,765.845C190.357,700.74 273.131,668.646 369.982,559.936C372.232,557.411 380.233,550.993 373.489,552.227C371.228,552.641 334.146,558.056 299.557,552.194C248.832,543.596 224.623,514.721 224.534,513.495C224.282,510.051 241.048,506.148 242.577,505.793C250.681,503.906 277.938,524.676 341.5,525.468C365.942,525.772 400.927,519.089 401.246,518.331C402.86,514.496 372.889,520.169 281.449,498.711C218.595,483.961 173.794,450.335 152.71,417.375C149.529,412.401 168.448,410.246 176.591,408.969C187.6,407.243 187.273,410.038 203.606,419.303C311.263,480.37 424.799,488.055 426.654,487.803C432.973,486.944 425.229,486.061 414.363,482.964C385.219,474.657 299.054,449.496 227.768,413.003C143.465,369.848 122.125,310.773 122.516,308.504C122.941,306.041 148.853,299.314 178.542,302.166C183.681,302.66 189.636,315.238 244.239,352.885C355.311,429.467 452.77,459.694 454.485,458.469C456.474,457.049 454.023,456.977 442.651,451.208C270.568,363.904 206.535,302.698 189.029,285.965C151.307,249.909 131.518,202.882 132.245,195.473C133.05,187.278 209.226,189.876 214.556,197.455C229.974,219.377 241.406,232.42 245.007,236.91C280.569,281.244 339.71,332.756 348.543,340.45C380.343,368.149 430.928,405.12 479.572,430.284C482.55,431.824 482.148,429.367 481.263,428.727C453.416,408.616 453.703,408.414 422.811,384.112C303.894,290.564 239.161,205.289 226.784,184.329C222.719,177.445 204.036,146.091 199.918,118.452C198.425,108.43 204.792,111.068 208.506,110.888Z" style="fill:rgb(2,4,3);"/>
        <path d="M439.501,676.745C325.482,677 325.596,678.728 317.478,679.069C291.429,680.166 289.935,680.638 290.15,678.461C290.292,677.023 295.286,675.387 318.933,650.944C321.962,647.813 322.062,648.001 357.534,612.534C387.95,582.121 569.044,402.868 571.515,402.59C573.237,402.396 582.062,414.578 593.607,428.411C597.443,433.006 596.648,433.617 596.615,457.5C596.58,482.926 596.181,774.41 596.783,775.326C597.79,776.858 614.559,766.043 642.79,748.949C647.831,745.897 704.948,711.312 705.008,709.513C705.045,708.421 704.202,708.828 646.501,708.787C636.165,708.78 630.69,709.867 630.601,706.495C630.047,685.623 630.815,685.63 630.615,445.501C630.615,445.226 629.682,435.959 633.019,439.998C636.538,444.256 670.649,474.985 671.105,477.575C671.654,480.692 670.525,666.071 671.713,667.26C672.755,668.302 702.047,667.639 763.498,667.821C766.981,667.831 774.347,667.077 770.907,669.777C767.888,672.147 731.615,706.444 686.445,738.424C676.482,745.477 611.219,791.683 558.708,821.881C556.604,823.09 555.425,823.925 555.355,821.531C555.351,821.425 555.472,473.805 555.321,473.624C553.991,472.04 553.645,473.948 506.366,519.361C461.425,562.529 390.099,632.328 388.077,634.084C385.87,636.001 384.527,635.867 385.724,637.227C386.106,637.66 440.332,637.259 471.5,637.292C522.525,637.347 524.463,636.4 524.528,639.499C525.009,662.567 524.546,786.7 524.499,799.5C524.478,805.148 526.173,806.552 518.242,812.144C490.807,831.491 489.081,833.236 488.497,830.501C488.355,829.836 488.698,678.678 488.112,677.67C487.441,676.516 487.024,676.618 439.501,676.745Z" style="fill:rgb(246,237,218);"/>
        <path d="M781.495,528.945C773.835,531.742 741.979,538.801 721.548,562.546C721.039,563.138 718.717,567.11 717.74,565.371C717.605,565.131 719.546,550.174 729.585,537.568C748.684,513.584 776.818,513.308 770.367,510.869C769.916,510.698 735.027,517.444 707.561,489.439C680.16,461.499 745.608,524.133 832.774,472.968C845.092,465.737 849.346,460.321 847.66,465.523C835.064,504.411 848.187,511.641 850.742,540.47C852.275,557.761 844.051,577.044 844.652,565.474C845.145,555.986 831.373,532.925 829.652,533.834C827.542,534.949 840.648,578.683 803.379,614.372C798.548,618.998 779.736,631.009 774.817,626.163C772.544,623.923 759.717,611.284 765.179,587.455C766.286,582.626 769.852,578.131 765.704,580.887C765.528,581.004 758.448,591.872 755.316,600.429C749.549,616.186 754.238,625.575 748.201,619.86C712.796,586.339 767.433,538.082 780.637,531.65C782.302,530.839 782.375,530.488 781.495,528.945Z" style="fill:rgb(246,236,218);"/>
        <path d="M290.548,863.702C249.752,873.419 228.851,867.642 228.359,865.545C227.476,861.78 250.384,825.738 308.834,772.868C348.727,736.784 359.569,728.314 376.506,712.509C378.222,710.908 379.599,712.443 378.064,714.221C370.358,723.146 372.08,724.469 287.933,830.85C282.562,837.641 282.238,837.762 282.677,838.349C283.974,840.082 323.341,831.887 351.542,811.581C351.696,811.471 357.049,808.758 353.182,813.298C341.587,826.908 338.739,843.525 327.235,850.016C315.149,856.835 293.565,862.86 290.548,863.702Z" style="fill:rgb(245,236,218);"/>
        <path d="M357.553,874.815C353.883,875.263 338.665,878.863 339.976,871.569C347.535,829.502 393.915,770.032 400.056,762.158C416.706,740.808 416.73,740.929 434.055,720.119C436.131,717.625 442.333,707.83 442.709,711.446C442.776,712.091 376.377,840.629 377.271,841.704C378.001,842.581 411.735,832.112 440.975,796.9C441.775,795.936 449.044,787.182 450.388,784.386C456.399,771.876 451.856,787.271 451.773,787.533C451.621,788.016 443.89,828.162 441.087,831.132C409.461,864.635 368.022,872.738 357.553,874.815Z" style="fill:rgb(245,236,218);"/>
        <path d="M151.491,842.57C146.612,841.783 125.598,839.177 128.75,834.651C144.708,811.742 230.441,755.149 239.806,748.967C248.345,743.331 301.441,710.498 301.5,710.493C305.989,710.125 296.953,715.981 287.904,724.902C261.756,750.679 196.991,811.031 191.272,815.289C185.84,819.333 198.559,817.549 201.483,817.314C237.529,814.425 260.906,802.405 261.697,803.257C263.145,804.814 260.17,805.574 257.831,807.801C233.757,830.725 234.285,831.172 232.154,833.117C227.856,837.041 195.427,847.438 151.491,842.57Z" style="fill:rgb(246,236,218);"/>
        <path d="M520.731,217.481C519.64,205.996 519.904,206.068 518.999,194.478C517.571,176.201 522.936,128.732 527.494,129.516C527.851,129.578 539.03,145.672 543.432,173.509C547.922,201.901 537.433,277.533 562.647,354.482C565.13,362.058 560.268,354.915 560.184,354.735C547.136,326.869 528.627,293.081 520.731,217.481Z" style="fill:rgb(243,235,217);"/>
        <path d="M757.44,360.128C775.775,357.111 803.342,352.848 836.268,368.961C850.983,376.162 867.731,395.922 849.358,389.918C800.672,374.008 784.334,379.117 757.422,389.265C752.937,390.957 720.106,379.923 711.549,379.235C711.264,379.212 705.078,378.714 708.804,376.962C734.265,364.986 753.41,360.973 757.44,360.128Z" style="fill:rgb(245,236,217);"/>
        <path d="M519.5,602.453C475.023,602.397 473.49,602.447 469.491,602.577C464.999,602.723 470.826,598.337 471.591,597.594C488.411,581.24 488.208,581.09 489.671,579.674C522.094,548.275 524.506,544.729 524.594,548.475C524.691,552.635 525.266,577.319 524.453,600.494C524.335,603.832 522.742,602.267 519.5,602.453Z" style="fill:rgb(246,236,218);"/>
        <path d="M848.164,429.928C847.928,430.32 848.432,430.908 848.195,431.3C847.841,431.889 847.091,432.121 846.571,432.57C835.33,442.284 823.559,461.819 788.458,468.278C782.273,469.417 766.854,469.76 766.417,469.595C762.478,468.106 776.004,467.001 795.379,456.277C822.194,441.434 817.597,428.029 848.164,429.928Z" style="fill:rgb(244,236,219);"/>
        <path d="M903.524,386.367C905.791,386.974 913.904,389.145 931.245,395.975C933.078,396.697 932.687,398.16 930.712,397.987C905.286,395.759 879.34,418.712 869.549,407.459C866.39,403.83 885.62,384.389 890.499,384.435C897.154,384.499 897.027,385.136 903.524,386.367Z" style="fill:rgb(244,236,217);"/>
        <path d="M776.602,409.529C777.007,407.783 779.829,395.631 792.548,393.79C814.747,390.578 816.422,403.898 808.518,405.579C801.513,407.07 801.657,398.928 798.395,400.043C783.649,405.084 795.319,422.457 805.546,419.705C816.638,416.721 816.07,402.466 818.049,406.863C822.936,417.718 820.637,420.47 818.948,422.819C818.016,423.047 817.757,422.243 813.615,424.742C801.665,431.949 784.83,427.683 779.798,414.333C778.328,410.432 778.156,410.49 776.602,409.529Z" style="fill:rgb(182,26,30);"/>
        <path d="M776.602,409.529C778.156,410.49 778.328,410.432 779.798,414.333C784.83,427.683 801.665,431.949 813.615,424.742C817.757,422.243 818.016,423.047 818.948,422.819C817.509,424.969 817.503,424.908 815.435,426.412C806.783,432.704 797.129,430.668 795.541,430.333C785.536,428.223 776.293,418.707 776.602,409.529Z" style="fill:rgb(226,214,210);"/>
    </g>
</svg>
