<?xml version="1.0" encoding="UTF-8" standalone="no"?><!DOCTYPE svg PUBLIC "-//W3C//DTD SVG 1.1//EN" "http://www.w3.org/Graphics/SVG/1.1/DTD/svg11.dtd"><svg width="100%" height="100%" viewBox="0 0 240 240" version="1.1" xmlns="http://www.w3.org/2000/svg" xmlns:xlink="http://www.w3.org/1999/xlink" xml:space="preserve" xmlns:serif="http://www.serif.com/" style="fill-rule:evenodd;clip-rule:evenodd;stroke-linejoin:round;stroke-miterlimit:2;"><g id="ChatGPT-Image-Jun-4--2026--11_48_44-AM.png" serif:id="ChatGPT Image Jun 4, 2026, 11_48_44 AM.png"><path d="M212.153,104.473l0.248,-0.032c0.695,0.195 0.731,0.169 1.159,0.798c0.395,1.056 0.411,1.032 0.664,2.142c0.197,1.665 0.234,2.425 0.244,2.637c0.059,1.98 0.017,1.954 -0.004,3.837c-0.153,1.086 -0.099,1.078 -0.249,2.154c-0.085,0.477 -0.169,0.954 -0.254,1.431c-0.579,2.31 -0.603,2.28 -1.411,4.546c-0.245,0.555 -0.49,1.109 -0.735,1.664c-1.432,2.972 -1.908,3.407 -1.955,3.477c-2.971,4.485 -3.397,4.131 -3.647,4.523c-0.037,0.059 -0.112,0.605 0.865,0.106c3.593,-1.835 3.653,-1.707 6.995,-2.175c3.163,-0.321 3.154,-0.057 3.587,-0.012c0.895,0.319 0.939,0.3 1.443,1.099c0.287,0.873 0.155,0.869 0.146,1.658c-0.304,1.334 -0.303,1.317 -0.713,2.615c-0.236,0.533 -0.415,1.299 -1.803,3.646c-4.376,6.465 -9.274,10.152 -19.447,11.147c-3.077,0.301 -5.405,2.318 -3.372,1.773c7.275,-1.951 16.847,1.226 17.662,2.957c0.412,0.875 -2.858,4.151 -4.073,5.119c-0.222,0.184 -0.443,0.367 -0.665,0.551l-0.508,0.43c-0.233,0.173 -0.465,0.346 -0.698,0.519c-0.769,0.492 -5.777,3.695 -10.5,4.481c-1.086,0.26 -1.093,0.112 -2.182,0.33c-1.432,0.264 -1.459,-0.028 -2.859,0.315c-0.8,0.52 -0.655,0.644 -1.277,1.598l-0.403,0.542c-0.186,0.197 -0.372,0.394 -0.558,0.591c-0.764,0.43 -0.76,0.424 -0.825,0.464c-3.497,2.156 -5.827,1.887 -6.211,2.581c-0.385,0.696 2.205,-0.308 3.51,-0.739c3.26,-1.076 8.518,1.085 13.393,2.959c1.479,0.568 3.12,1.361 0.679,3.148c-3.612,2.643 -5.143,2.877 -3.982,2.923c1.678,0.066 1.657,0.574 2.859,0.287c0.704,0.424 0.685,0.428 1.403,0.829c3.131,1.389 4.114,2.209 4.788,2.633c0.523,0.304 0.505,0.301 0.977,0.674c0.195,0.16 0.161,0.164 0.367,0.333c0.044,0.036 0.041,0.032 0.56,0.436c0.154,0.151 0.308,0.303 0.462,0.454c0.294,0.86 -0.034,0.817 -0.43,1.341c-0.574,0.519 -0.528,0.54 -1.195,0.946c-0.091,0.06 -0.181,0.12 -0.272,0.18c-0.205,0.107 -1.08,0.566 -2.608,1.238c-8.998,3.654 -9.341,2.574 -12.441,3.227c-1.061,0.223 -2.129,-0.17 -1.375,0.621c0.518,0.544 0.499,0.543 1.017,1.106c1.584,1.975 2.086,3.178 0.095,3.434c-8.453,1.09 -11.084,-3.287 -11.794,-2.111c-3.207,5.313 -10.199,5.982 -13.928,3.985c-1.031,-0.552 -0.803,0.873 -2.886,2.445c-3.948,2.979 -11.079,-0.441 -11.221,-0.407c-0.049,0.012 -1.236,1.547 -3.663,3.776c-0.442,0.406 -5.132,3.677 -5.727,2.743c-0.796,-1.251 -0.985,-7.659 0.878,-8.744c3.775,-2.199 -1.139,0.305 -5.124,2.088c-10.635,4.758 -23.453,3.023 -24.039,2.309c-0.673,-0.82 4.713,-8.425 4.326,-8.885c-0.118,-0.14 -7.634,-1.177 -4.589,-1.991c2.717,-0.727 8.404,-5.013 9.084,-5.525c2.383,-1.795 2.351,-1.811 4.707,-3.641c2.592,-2.012 3.016,-0.732 6.621,-1.416c1.909,-0.283 6.628,-2.575 2.894,-1.802c-0.301,0.062 -0.308,-0.065 -3.836,0.302c-1.712,0.178 -2.523,0.115 -1.975,-1.537c0.15,-0.452 0.513,-1.547 3.088,-5.083c1.324,-1.819 1.685,-1.934 1.288,-2.131c-0.517,-0.257 -12.689,13.136 -21.155,16.996c-0.761,0.347 -0.541,-2.289 -0.541,-2.808c0,-0.411 0.222,-1.945 -0.441,-1.286c-0.121,0.12 -2.915,2.223 -6.656,3.491c-5.521,1.87 -12.536,2.214 -13.379,-0.074c-0.499,-1.355 0.062,-2.474 -1.276,-1.888c-11.694,5.115 -20.178,3.089 -21.85,2.953c-0.084,-0.007 -2.271,-0.483 -2.593,-0.635c-1.045,-0.493 2.704,-4.186 0.669,-3.842c-11.601,1.957 -28.089,-2.291 -27.746,-3.724c0.234,-0.979 6.941,-6.656 12.861,-10.382c16.021,-10.084 23.455,-11.86 34.674,-28.22c4.081,-5.951 5.553,-7.153 3.996,-6.739c-7.809,2.074 -23.373,-0.496 -26.926,-10.121c-0.381,-1.031 -0.08,-1.397 -1.381,-1.769c-12.009,-3.435 -18.336,-10.792 -18.033,-11.687c0.436,-1.287 3.744,-2.029 4.105,-2.11c1.733,-0.388 -0.073,-0.829 -2.109,-2.289c-0.865,-0.621 -7.021,-4.577 -11.468,-11.04c-1.297,-1.886 -3.475,-6.158 -2.889,-7.047c1.747,-2.649 9.72,-4.359 9.739,-4.386c0.3,-0.422 -5.175,-5.522 -6.738,-13.923c-0.668,-3.589 8.285,-4.306 14.643,-3.484c0.696,0.09 1.091,0.429 0.919,-0.106c-0.317,-0.988 -4.378,-4.625 -5.737,-13.93c-0.365,-2.502 3.824,-2.295 5.786,-2.37c3.998,-0.152 10.777,1.038 16.341,3.259c1.09,0.435 0.172,-0.941 -0.071,-2.321c-0.555,-3.156 -0.424,-3.233 -0.191,-3.37c1.464,-0.859 10.571,-1.246 18.489,0.936c0.392,0.108 0.778,0.238 1.17,0.348c0.956,0.267 0.423,-0.921 1.172,-4.654c0.454,-2.263 1.434,-1.987 5.104,-1.249c0.397,0.08 7.03,1.775 11.924,5.188c1.437,1.002 1.586,1.719 3.004,0.718c2.341,-1.652 2.816,-2.736 6.117,-0.482c7.406,5.057 6.442,8.465 9.123,6.783c1.168,-0.733 2.57,-2.602 5.021,1.584c4.056,6.928 3.081,12.058 4.258,21.298c0.151,1.183 0.126,3.396 1.437,11.035c0.642,3.741 1.799,8.959 2.305,8.934c0.194,-0.009 4.002,-3.969 12.249,-6.97c6.076,-2.211 12.52,-1.926 15.108,-1.833c4.292,0.154 8.828,1.884 9.561,2.163c3.994,1.523 7.454,4.577 8.024,5.08c0.549,0.484 3.897,-0.645 12.37,3.306c1.084,0.506 2.025,0.726 1.214,1.014c-0.834,0.297 -6.808,1.951 -10.87,5.735c-3.302,3.076 -7.862,10.215 -1.406,15.073c0.555,0.418 0.833,1.501 -0.365,0.997c-0.903,-0.38 -1.638,-1.047 -1.304,-0.109c0.813,2.282 3.326,7.01 -0.549,13.492c-0.558,0.933 -3.563,5.961 -10.916,8.087c-0.494,0.143 -0.507,0.021 -0.999,0.188c-0.343,0.117 -0.34,0.114 -0.361,0.136c-0.087,0.094 0.138,0.105 0.052,0.198c0.042,0.05 0.085,0.099 0.127,0.149c0.633,-0.01 2.738,-0.045 7.886,0.612c0.856,0.109 -0.032,0.407 -1.36,1.443c-6.637,5.177 -6.699,5.055 -13.558,9.922c-5.875,4.169 -6.201,3.812 -6.445,4.386c-0.3,0.707 0.272,0.413 0.996,0.692c0.527,0.203 1.59,0.886 2.057,0.218c2.655,-3.791 6.425,-3.535 7.262,-3.829c0.221,0.137 0.161,0.272 1,0.411c4.042,0.667 3.904,2.221 4.989,1.506c1.727,-1.137 2.3,0.401 3.836,-0.955c3.561,-3.145 4.584,-3.257 8.776,-9.24c9.067,-12.941 12.54,-28.357 12.313,-38.471c-0.014,-0.636 -0.128,-5.734 -0.505,-7.937c-0.02,-0.118 -0.173,-0.184 -0.193,-0.302c1.362,-0.535 1.33,-0.572 2.697,-1.097c0.688,-0.264 0.745,1.342 1.127,4.545c0.685,5.737 0.278,5.754 0.419,7.377c0.004,0.047 0.166,0.481 0.539,-0.225c0.633,-1.196 2.72,-3.427 2.887,-3.612c1.292,-1.434 0.561,-3.016 0.475,-4.023c-1.444,-16.928 -13.083,-49.302 -48.7,-64.45c-17.676,-7.518 -31.912,-6.638 -37.876,-6.495c-5.879,0.14 -15.715,2.386 -17.062,2.694c-5.185,1.184 -5.094,2.109 -7.675,1.629c-5.485,-1.021 -7.043,-0.217 -7.823,5.433c-0.149,1.082 -2.736,-0.026 -4.649,-0.14c-6.613,-0.395 -6.607,0.083 -7.18,0.04c-1.176,-0.09 2.305,-1.754 3.156,-2.233c19.82,-11.163 41.489,-11.544 45.314,-11.429c9.139,0.274 10.799,0.738 12.714,0.904c5.881,0.511 33.696,5.077 54.383,29.245c10.739,12.546 16.399,27.213 18.435,37.099c1.28,6.218 0.703,7.741 1.533,7.137c1.028,-0.748 1.891,-1.119 3.183,-2.065c0.604,-0.245 0.58,-0.264 1.181,-0.51c0.833,-0.321 0.805,-0.346 1.681,-0.49Z" style="fill-opacity:1;"/><path d="M114.743,29.504c0.583,0.062 0.56,0.046 1.166,0.029c0.327,0.001 0.655,0.002 0.982,0.004c3.13,0.04 3.112,-0.079 6.229,-0.002c0.066,0.042 0.169,-0.052 0.235,-0.01c0.005,0.003 0.133,0.422 0.723,0.371c0.41,-0.036 0.359,-0.149 0.732,-0.304c1.584,0.714 1.763,-0.254 3.368,0.418c0.212,0.089 0.255,-0.269 2.861,0.254c0.774,0.483 0.826,0.383 1.676,0.11c0.532,0.07 7.669,1.376 7.693,1.384c1.4,0.448 3.754,1.069 4.082,1.156c0.588,0.155 4.586,1.211 7.222,2.384c0.559,0.249 0.584,0.129 1.138,0.396c0.891,0.429 1.128,0.177 3.114,1.198c0.292,0.15 0.256,0.181 0.543,0.325c0.246,0.079 0.492,0.158 0.738,0.237c2.307,1.176 2.789,1.288 3.049,1.348c0.134,0.567 0.479,0.585 0.543,0.588c0.28,0.014 0.209,0.151 0.474,0.245c0.155,0.055 0.337,-0.072 0.492,-0.017c1.686,0.84 2.237,1.273 2.413,1.411c0.151,0.023 0.301,0.046 0.452,0.069c0.133,0.102 0.08,0.165 0.261,0.198c0.246,0.046 0.637,0.457 1.189,0.711c0.245,0.393 0.215,0.45 0.705,0.531c1.12,0.058 1.42,1.081 3.137,1.87c0.337,0.301 0.325,0.3 0.726,0.498c0.28,0.208 0.268,0.197 0.494,0.453c0.054,0.046 0.158,-0.033 0.212,0.014c0.362,0.312 0.263,0.453 0.726,0.522c0.052,0.033 -0.014,0.147 0.038,0.18c0.029,0.019 0.032,0.006 0.428,0.075c0.134,0.096 0.142,0.072 1.711,1.143c0.088,0.06 0.939,0.893 1.431,1.207c0.246,0.43 0.226,0.45 0.266,0.465c0.072,0.027 0.173,-0.031 0.231,0.02c0.052,0.045 -0.025,0.163 0.029,0.205c0,0 0.38,0.076 0.413,0.083c1.521,1.141 1.507,1.156 1.658,1.22c0.168,0.071 0.802,0.834 1.242,1.117c0.228,0.442 0.215,0.493 0.707,0.539c0.425,0.457 0.667,0.615 0.733,0.658c0.088,0.128 -0.072,0.14 0.009,0.258c0.068,0.099 0.121,-0.037 0.203,0.051c0.047,0.051 -0.024,0.168 0.035,0.205c0,0 0.403,0.044 0.438,0.048c0.446,0.401 0.503,0.333 0.807,0.853c0.084,0.107 -0.079,0.132 0.005,0.241c0.075,0.097 0.122,-0.051 0.211,0.037c0.05,0.049 -0.015,0.16 0.037,0.207c0.055,0.049 0.168,-0.031 0.22,0.021c0.052,0.052 -0.035,0.172 0.021,0.219c0.097,0.083 0.27,0.029 0.367,0.112c0.056,0.048 -0.036,0.172 0.019,0.22c0.217,0.289 0.206,0.274 0.492,0.47c0.394,0.296 0.291,0.375 0.324,0.399c0,0 0.36,0.081 0.391,0.088c1.597,1.648 1.945,1.655 3.023,3.189c0.377,0.536 1.307,1.162 2.095,2.497c0.02,0.03 -0.175,0.168 0.338,0.359c0.775,1.015 0.886,0.906 1.647,1.942c0.679,0.925 0.768,0.846 1.341,1.834c0.053,0.092 0.094,0.058 0.818,1.047c0.042,0.058 0.282,0.386 0.455,0.772c0.044,0.117 0.089,0.234 0.133,0.351c0.184,0.316 0.162,0.306 0.289,0.459c1.846,1.774 2,2.899 2.368,3.386c1.561,2.067 4.191,7.696 4.533,8.169c0.003,0.004 1.605,3.62 1.604,3.642c-0.015,0.224 0.232,0.141 1.098,2.586c0.128,0.362 0.133,0.335 0.216,0.724c0.038,0.984 0.489,1.166 0.514,1.2c0.097,0.108 0.193,0.217 0.29,0.325c-0.055,0.47 -0.102,0.47 0.142,0.891c0.664,1.437 0.394,1.525 0.675,1.927c0.033,0.047 0.227,1.05 0.516,1.414c-0.246,0.636 -0.096,0.646 0.293,1.224c0.428,1.395 0.565,1.33 0.551,1.454c-0.079,0.701 0.066,0.669 0.128,0.941c0.414,1.824 0.598,1.78 0.58,1.941c-0.015,0.132 -0.043,0.381 0.164,1.648c0.01,0.405 0.051,0.374 0.218,0.737c0.205,0.888 0.216,0.879 0.222,0.958c0.028,0.316 0.002,0.636 0.048,0.95c0.009,0.059 0.435,0.713 0.243,1.447c-0.035,0.66 -0.04,0.656 -0.037,0.713c0.002,0.034 0.076,0.031 0.078,0.064c0.04,0.149 0.08,0.298 0.12,0.447c-1.292,0.945 -2.155,1.317 -3.183,2.065c-0.83,0.603 -0.253,-0.919 -1.533,-7.137c-2.036,-9.886 -7.696,-24.553 -18.435,-37.099c-20.687,-24.169 -48.502,-28.735 -54.383,-29.245c-1.915,-0.166 -3.574,-0.63 -12.714,-0.904c-3.824,-0.115 -25.493,0.267 -45.314,11.429c-0.851,0.479 -4.332,2.143 -3.156,2.233c0.573,0.044 0.567,-0.435 7.18,-0.04c1.913,0.114 4.5,1.222 4.649,0.14c0.78,-5.65 2.338,-6.454 7.823,-5.433c2.581,0.481 2.49,-0.445 7.675,-1.629c1.347,-0.308 11.183,-2.554 17.062,-2.694c5.964,-0.142 20.2,-1.023 37.876,6.495c35.617,15.148 47.256,47.523 48.7,64.45c0.086,1.008 0.817,2.59 -0.475,4.023c-0.167,0.185 -2.254,2.417 -2.887,3.612c-0.374,0.706 -0.535,0.272 -0.539,0.225c-0.142,-1.623 0.266,-1.64 -0.419,-7.377c-0.382,-3.203 -0.439,-4.809 -1.127,-4.545c-1.366,0.525 -1.335,0.562 -2.697,1.097c-0.967,0.415 -8.197,3.517 -10.902,7.349c-5.066,7.175 1.588,9.593 1.528,10.966c-0.093,2.133 -1.296,1.77 -1.221,2.892c0.003,0.049 2.018,4.922 -0.918,10.529c-0.381,0.727 -0.29,0.78 -0.225,0.792c0.273,0.049 0.198,-0.349 3.395,-0.685c0.427,-0.045 1.08,-0.237 0.587,0.455c-3.615,5.078 -5.51,4.825 -8.966,6.711c-0.636,0.347 0.029,0.387 0.7,0.641c1.65,0.626 2.896,0.684 1.654,1.931c-7.479,7.504 -14.984,12.349 -15.849,13.407c-0.836,0.294 -4.607,0.038 -7.262,3.829c-0.467,0.667 -1.53,-0.015 -2.057,-0.218c-0.724,-0.279 -1.296,0.014 -0.996,-0.692c0.244,-0.574 0.57,-0.217 6.445,-4.386c6.859,-4.867 6.921,-4.745 13.558,-9.922c1.328,-1.036 2.216,-1.334 1.36,-1.443c-5.148,-0.657 -7.253,-0.622 -7.886,-0.612l-0.127,-0.149c0.085,-0.093 -0.139,-0.103 -0.052,-0.198c0.021,-0.023 0.018,-0.02 0.361,-0.136c0.492,-0.168 0.505,-0.046 0.999,-0.188c7.353,-2.126 10.358,-7.154 10.916,-8.087c3.875,-6.482 1.362,-11.21 0.549,-13.492c-0.334,-0.937 0.401,-0.27 1.304,0.109c1.199,0.504 0.921,-0.58 0.365,-0.997c-6.456,-4.858 -1.897,-11.997 1.406,-15.073c4.063,-3.784 10.036,-5.438 10.87,-5.735c0.811,-0.289 -0.13,-0.509 -1.214,-1.014c-8.473,-3.951 -11.822,-2.821 -12.37,-3.306c-0.57,-0.503 -4.03,-3.557 -8.024,-5.08c-0.733,-0.279 -5.269,-2.009 -9.561,-2.163c-2.588,-0.093 -9.032,-0.378 -15.108,1.833c-8.247,3.001 -12.056,6.961 -12.249,6.97c-0.506,0.024 -1.663,-5.193 -2.305,-8.934c-1.311,-7.639 -1.286,-9.852 -1.437,-11.035c-1.177,-9.24 -0.202,-14.371 -4.258,-21.298c-2.451,-4.186 -3.852,-2.317 -5.021,-1.584c-2.681,1.682 -1.717,-1.726 -9.123,-6.783c-3.302,-2.255 -3.777,-1.17 -6.117,0.482c-1.418,1.001 -1.567,0.284 -3.004,-0.718c-4.894,-3.413 -11.526,-5.108 -11.924,-5.188c-3.67,-0.738 -4.65,-1.014 -5.104,1.249c-0.749,3.733 -0.216,4.922 -1.172,4.654c-0.392,-0.11 -0.778,-0.239 -1.17,-0.348c-7.918,-2.182 -17.025,-1.795 -18.489,-0.936c-0.233,0.137 -0.364,0.214 0.191,3.37c0.243,1.38 1.161,2.757 0.071,2.321c-5.564,-2.221 -12.343,-3.411 -16.341,-3.259c-1.962,0.075 -6.151,-0.132 -5.786,2.37c1.359,9.305 5.419,12.941 5.737,13.93c0.172,0.535 -0.223,0.196 -0.919,0.106c-6.358,-0.822 -15.311,-0.105 -14.643,3.484c1.563,8.402 7.039,13.501 6.738,13.923c-0.019,0.027 -7.992,1.737 -9.739,4.386c-0.586,0.888 1.592,5.161 2.889,7.047c4.447,6.463 10.603,10.419 11.468,11.04c2.036,1.46 3.842,1.9 2.109,2.289c-0.36,0.081 -3.669,0.822 -4.105,2.11c-0.303,0.895 6.024,8.251 18.033,11.687c1.301,0.372 1.001,0.738 1.381,1.769c3.553,9.626 19.118,12.195 26.926,10.121c1.557,-0.414 0.085,0.788 -3.996,6.739c-11.219,16.36 -18.653,18.136 -34.674,28.22c-5.92,3.726 -12.626,9.404 -12.861,10.382c-0.343,1.433 16.145,5.68 27.746,3.724c2.035,-0.343 -1.714,3.349 -0.669,3.842c0.322,0.152 2.509,0.628 2.593,0.635c1.673,0.136 10.156,2.162 21.85,-2.953c1.338,-0.585 0.777,0.533 1.276,1.888c0.843,2.288 7.858,1.944 13.379,0.074c3.741,-1.268 6.535,-3.37 6.656,-3.491c0.663,-0.659 0.442,0.875 0.441,1.286c-0,0.519 -0.221,3.155 0.541,2.808c8.466,-3.86 20.638,-17.253 21.155,-16.996c0.397,0.197 0.036,0.312 -1.288,2.131c-2.574,3.535 -2.938,4.631 -3.088,5.083c-0.548,1.652 0.263,1.714 1.975,1.537c3.528,-0.367 3.534,-0.24 3.836,-0.302c3.733,-0.773 -0.985,1.52 -2.894,1.802c-3.606,0.683 -4.029,-0.596 -6.621,1.416c-2.357,1.829 -2.325,1.845 -4.707,3.641c-0.679,0.512 -6.367,4.798 -9.084,5.525c-3.044,0.814 4.472,1.851 4.589,1.991c0.387,0.46 -4.999,8.065 -4.326,8.885c0.586,0.715 13.405,2.45 24.039,-2.309c3.985,-1.783 8.899,-4.288 5.124,-2.088c-1.863,1.085 -1.674,7.493 -0.878,8.744c0.595,0.935 5.285,-2.337 5.727,-2.743c2.427,-2.228 3.614,-3.764 3.663,-3.776c0.142,-0.034 7.272,3.387 11.221,0.407c2.083,-1.572 1.855,-2.997 2.886,-2.445c3.729,1.997 10.72,1.328 13.928,-3.985c0.71,-1.176 3.341,3.201 11.794,2.111c1.991,-0.257 1.488,-1.459 -0.095,-3.434c0.136,-0.04 0.187,-0.239 0.323,-0.279c0.164,-0.049 0.341,0.026 0.512,0.031c0.652,0.02 0.641,-0.371 0.678,-0.408c0.088,-0.089 0.792,-0.008 -0.056,1.571c0.206,0.627 0.083,0.623 0.103,0.674c0.011,0.026 0.111,-0.105 0.274,0.215c0.898,1.766 -0.935,1.755 -2.494,2.601c-3.752,2.036 -6.719,0.149 -9.023,-0.495c-0.069,-0.004 -0.139,-0.008 -0.208,-0.012c-0.267,-0.132 -0.24,-0.153 -0.52,-0.257c-0.44,-0.163 -0.395,0.079 -0.523,0.104c-0.008,-0.003 -0.266,-0.43 -0.481,0.244c-0.859,0.796 -1.618,2.231 -5.068,3.51c-0.17,0.047 -0.174,0.019 -2.137,0.548c-0.701,0.189 -0.677,0.307 -1.669,0.268l-0.24,0.019c-0.48,-0.009 -0.96,-0.017 -1.44,-0.026c-2.529,-0.041 -2.836,-1.461 -4.3,0.026c-0.708,0.719 -3.383,4.205 -11.32,1.709c-1.164,-0.355 -1.195,-0.101 -2.061,0.753c-1.624,1.602 -2.315,2.077 -2.538,2.231c-0.224,0.154 -6.903,5.839 -9.198,1.003c-0.378,-0.796 -0.367,-4.146 -0.366,-4.508c0.104,-0.288 0.327,-0.444 0.013,-0.446c-0.328,-0.002 -0.272,0.091 -0.5,0.322c-1.694,0.684 -2.387,0.821 -2.603,0.863l-0.482,0.245c-8.967,2.962 -14.774,2.409 -19.204,1.874c-0.622,-0.111 -4.603,-0.481 -4.808,-2.864c-0.045,-0.522 -0.086,-1.001 3.072,-5.788c0.153,-0.232 0.13,-0.229 0.336,-0.425c0.873,-1.2 1.358,-1.713 -0.018,-2.235c-0.862,-0.327 -0.854,-0.28 -1.733,-0.626c-0.115,-0.057 -0.973,-0.485 -1.422,-0.755c-0.786,-0.676 -1.026,-0.525 -1.476,-1.915c-0.005,-0.246 -0.011,-0.492 -0.016,-0.738c0.079,-0.636 0.295,-0.722 -0.186,-1.168c-0.27,0.111 -5.684,2.93 -9.348,2.898c-0.163,0.056 -0.327,0.112 -0.49,0.169c-1.173,0.078 -4.352,0.616 -8.823,-1.028c-1.411,-0.519 -1.262,-1.923 -2.973,-0.955c-0.67,0.379 -5.619,1.718 -6.917,1.783c-0.295,0.015 -0.816,0.26 -0.956,0.267c-8.899,0.427 -11.966,-0.48 -12.962,-0.774c-1.412,-0.417 -4.104,-0.731 -5.243,-2.684c-0.283,-0.324 -0.272,-0.329 -0.358,-0.389c-0.021,-0.055 -0.043,-0.021 -0.366,-0.636c-0.173,-0.034 -0.346,-0.067 -0.519,-0.101c-0.961,0.042 -0.938,0.058 -1.918,-0.006l-0.239,-0.022c-1.617,0.118 -2.17,-0.113 -3.839,-0.251c-0.075,-0.005 -0.073,0.013 -0.939,-0.027c-0.327,-0.063 -0.655,-0.126 -0.982,-0.189c-1.304,-0.197 -12.789,-1.928 -15.838,-4.568c-0.156,-0.083 -0.313,-0.166 -0.469,-0.249c-0.458,-0.394 -0.436,-0.382 -0.873,-0.787c-0.161,-0.17 -1.028,-1.084 0.529,-2.876c0.761,-0.877 0.829,-1.275 2.272,-2.547c0.489,-0.431 0.546,-0.797 1.694,-1.664c0.13,-0.098 -0.018,-0.223 1.483,-1.391c0.747,-0.581 0.676,-0.64 1.413,-1.206c0.348,-0.267 0.308,-0.278 0.601,-0.608c0.489,-0.039 0.448,-0.114 0.769,-0.464c0.221,-0.138 0.144,-0.234 2.677,-1.861c0.068,-0.043 -0.012,-0.104 0.753,-0.665c0.532,-0.391 2.701,-1.748 3.56,-2.465c0.197,-0.046 0.174,-0.058 0.489,-0.221c0.035,-0.025 0.265,-0.188 0.454,-0.285c0.258,-0.064 0.225,-0.083 0.481,-0.235c0.275,-0.05 0.262,-0.05 0.483,-0.239c0.156,-0.104 0.312,-0.207 0.468,-0.311c0.06,-0.019 0.058,-0.023 8.356,-4.361c1.813,-0.948 2.189,-1.182 1.676,-1.747c-2.67,-2.942 -7.8,-10.412 -10.055,-15.158c-6.345,-13.356 -6.327,-20.363 -7.265,-24.719c-0.25,-1.159 -5.946,-3.19 -6.281,-9.862c-0.169,-3.369 -0.47,-3.349 -0.978,-3.703c-0.278,-0.194 -0.895,-0.624 -3.159,-2.824c-0.139,-0.085 -0.278,-0.17 -0.418,-0.256c-3.482,-3.492 -6.165,-7.863 -6.838,-11.211c-0.064,-0.164 -0.129,-0.328 -0.193,-0.491c-0.136,-0.73 -0.082,-0.71 -0.068,-1.431c0.007,-0.023 0.002,-0.001 0.124,-0.655c0.868,-2.137 1.485,-1.733 1.772,-2.515c0.148,-0.404 1.328,-0.925 1.456,-0.982c0.402,-0.209 0.383,-0.195 0.729,-0.492c0.538,-0.077 0.815,-0.707 2.158,-1.189c0.177,-0.045 0.354,-0.089 0.531,-0.134l0.219,-0.053c0.255,-0.035 1.277,0.079 0.524,-0.705c-0.147,-0.434 -0.148,-0.409 -0.419,-0.751c-0.731,-1.356 -0.838,-1.278 -1.437,-2.675c-0.301,-0.665 -0.546,-1.254 -0.592,-1.364c-0.576,-1.123 -0.724,-1.97 -0.755,-2.15c-0.201,-0.494 -0.441,-1.113 -0.479,-1.21c-0.059,-0.244 -0.119,-0.489 -0.178,-0.733c-0.28,-2.305 -2.201,-5.5 3.862,-8.559c3.193,-1.611 4.592,-0.923 5.542,-1.675c0.854,0.09 1.465,0.069 1.593,0.065c0.166,0.091 0.333,0.181 0.499,0.272c0.71,-0.198 0.447,-0.454 0.164,-1.12c-0.031,-0.079 -0.273,-0.688 -0.453,-0.963c-1.186,-2.699 -1.193,-3.514 -1.195,-3.836c-0.017,-0.033 -0.015,-0.033 -0.265,-0.731l-0.074,-0.281c-1.705,-8.071 2.235,-8.201 3.75,-8.85c1.02,-0.437 3.486,-0.518 4.071,-0.791c0.16,0.079 0.075,0.158 0.248,0.243c0.039,0.019 0.035,-0.017 0.485,-0.232c1.476,-0.014 1.46,-0.02 3.118,-0.021c0.039,0.022 0.486,0.275 0.486,0.275c0.163,-0.063 0.088,-0.145 0.24,-0.203c0.171,0.018 0.309,0.167 0.48,0.185c1.072,0.111 1.058,0.057 2.14,0.203c0.504,0.363 0.499,0.504 0.73,0.368c0.123,-0.072 0.162,-0.248 0.285,-0.32c0.277,0.264 0.287,0.212 0.681,0.225c0.441,0.326 0.435,0.354 0.963,0.297c1.021,-0.132 1.054,-0.203 1.401,0.093c0.12,0.102 0.12,0.045 0.279,0.104c0.123,0.07 1.153,0.655 1.678,0.556c0.373,-0.071 0.4,-0.575 0.41,-0.776c0.344,-0.736 0.236,-0.799 0.866,-1.324c0.662,-0.552 2.799,-2.333 9,-5.917c1.412,-0.816 3.314,-1.64 3.387,-1.863c0.011,-0.034 0.037,-0.113 0.443,-0.077c0.245,-0.158 0.491,-0.316 0.736,-0.474c1.912,-0.897 2.851,-1.537 4.549,-1.922c0.175,-0.04 0.132,-0.132 1.996,-1.03c0.9,-0.434 3.476,-1.264 3.782,-1.363c0.412,-0.133 0.326,-0.28 0.742,-0.406c0.107,-0.032 1.714,-0.085 3.614,-1.15c0.223,0.061 0.203,0.089 0.444,0.122c0.921,0.125 0.813,-0.354 0.976,-0.471c0.075,-0.003 1.959,-0.385 2.2,-0.587c0.318,-0.266 2.03,-0.36 4.045,-1.037c0.352,-0.118 0.714,0.101 1.179,-0.27c0.005,-0.004 2.42,-0.544 2.907,-0.522c0.864,0.039 0.824,-0.116 1.671,-0.231c0.288,-0.039 1.542,0.128 3.393,-0.526c0.071,-0.025 0.059,-0.014 1.879,0.039c0.648,0.189 0.688,0.174 1.217,-0.248c0.934,0.02 0.917,0.044 1.662,0.007c0.875,0.285 1.043,-0.044 2.174,0.029c0.047,0.003 0.038,-0.022 0.506,-0.297Z" style="fill:#f1e6d2;fill-opacity:0.98;"/><path d="M103.409,46.76c0.586,-0.27 0.586,-0.212 1.24,-0.267c0.721,-0.06 0.573,-0.789 8.876,-1.715c22.006,-2.453 38.58,5.9 41.81,7.786c6.109,3.567 6.493,3.048 16.026,11.613c8.666,7.786 16.775,21.311 19.847,31.46c0.355,1.174 0.157,1.222 0.67,2.32c0.051,0.109 0.184,0.182 0.2,0.302c0.014,0.105 -0.133,0.19 -0.119,0.296c-4.784,-1.906 -4.759,-1.945 -9.784,-3.003c-2.761,-0.581 -3.655,-3.384 -12.232,-6.245c-16.107,-5.373 -30.094,2.494 -32.366,3.772c-0.408,0.23 -0.956,0.889 -1.122,-0.088c-0.093,-0.551 -0.485,-1.156 -1.636,-7.441c-1.941,-10.596 -0.116,-21.787 -6.962,-30.202c-3.414,-4.196 -6.517,-1.027 -7.309,-1.798c-0.225,-0.219 -5.236,-5.955 -10.166,-7.554c-0.145,-0.047 -0.135,0.026 -1.899,0.039c-1.53,0.011 -3.064,2.256 -3.78,1.738c-0.894,-0.647 -1.198,-0.924 -1.295,-1.012Z" style="fill:#ca1d20;fill-opacity:1;"/><path d="M138.456,155.175c-0.194,-0.346 -0.16,-0.38 -0.156,-21.156c0,-1.138 0.009,-22.547 -0.004,-23.521c-0.003,-0.253 -0.259,-1.405 0.639,-0.453c1.912,2.027 4.988,4.782 5.503,5.292c0.251,0.248 0.21,0.313 0.211,9.562c0.003,24.742 -0.034,24.782 0.1,24.934c0.267,0.303 15.862,0.109 17.241,0.091c0.039,-0 0.669,0.153 -0.047,0.573c-0.863,0.506 -1.469,1.143 -1.919,1.436c-0.974,0.635 -0.981,0.618 -1.064,0.676c-9.828,6.871 -9.622,7.141 -19.702,13.652c-0.507,0.328 -6.224,4.02 -6.639,3.593c-0.399,-0.411 1.645,-1.152 1.759,-1.291c0.509,-0.623 -0.317,-0.27 -3.578,-0.245c-4.282,0.032 -4.729,0.208 -4.73,-0.461c-0.036,-50.79 -0.136,-50.78 0.069,-55.19c0.057,-1.227 -2.85,2.224 -4.316,3.742c-9.234,9.56 -9.555,9.884 -24.76,27.775c-2.713,3.192 -2.93,3.211 -2.714,3.491c0.127,0.165 25.548,-0.022 25.864,0.096c0.166,0.062 0.218,0.145 0.211,15.046c-0.007,14.802 0.139,14.944 -0.466,15.559c-4.215,4.282 -4.546,4.684 -4.616,4.19c-0.174,-1.228 0.006,-1.217 0.005,-2.469c-0.015,-27.586 0.039,-27.612 -0.1,-27.875c-0.072,-0.136 -1.587,-0.137 -1.726,-0.137c-4.985,-0.001 -22.84,-0.016 -24.48,0.011c-1.838,0.03 -1.733,0.393 -3.652,1.771c-2.569,1.845 -3.877,2.512 -5.048,3.34c-4.161,2.939 0.562,-1.426 1.393,-2.401c0.989,-1.162 10.98,-12.893 12.239,-14.63c7.337,-10.123 24.234,-29.089 33.518,-37.299c0.393,-0.347 0.648,-0.242 4.947,4.299c0.409,0.432 0.263,1.777 0.268,5.003c0.079,51.991 -0.017,52.11 0.196,52.188c0.534,0.196 10.466,-5.003 14.738,-7.728c0.524,-0.334 2.659,-1.496 1.632,-1.448c-3.45,0.161 -10.159,0.103 -10.816,-0.016Z" style="fill:#f1e6d2;fill-opacity:1;"/><path d="M34.12,103.489c2.264,2.2 2.881,2.63 3.159,2.824c0.508,0.354 0.809,0.334 0.978,3.703c0.335,6.672 6.032,8.703 6.281,9.862c0.938,4.356 0.92,11.363 7.265,24.719c2.255,4.746 7.384,12.216 10.055,15.158c0.512,0.565 0.137,0.799 -1.676,1.747c-8.298,4.338 -8.297,4.342 -8.356,4.361c-3.488,-0.072 -3.48,0.012 -6.955,-0.321c-1.66,-0.395 -1.654,-0.362 -2.606,-0.658c-1.457,-0.453 -1.437,-0.446 -2.868,-0.976c-1.703,-0.673 -2.432,-1.051 -2.636,-1.157c-5.842,-3.118 -9.285,-7.327 -8.826,-8.034c0.565,-0.871 5.824,-3.33 9.752,-3.555c1.947,-0.112 3.437,-0.284 5.754,0.194c1.216,0.251 -0.366,-1.362 -2.384,-1.593c-0.865,-0.099 -11.162,-0.375 -17.668,-9.818c-1.409,-2.045 -5.163,-9.591 -2.053,-10.337c0.599,-0.144 2.501,-0.6 7.688,0.438c2.461,0.493 4.776,2.093 4.115,1.086c-0.051,-0.078 -1.751,-1.02 -3.95,-4.735c-2.631,-4.446 -3.62,-6.6 -4.436,-13.02c-0.138,-1.343 -0.087,-1.329 -0.118,-2.395c0.084,-1.92 0.65,-4.437 0.735,-4.818c0.405,-1.042 0.337,-1.513 1.751,-1.786c0.79,0.201 0.777,0.192 0.918,0.241c1.082,0.468 1.087,0.417 2.179,0.897c1.561,0.891 1.529,0.894 3.106,1.703c0.591,0.369 1.115,0.765 0.974,-0.075c-0.045,-0.268 -0.531,-3.156 -0.51,-3.353c0.016,-0.149 0.318,-0.151 0.334,-0.3Z" style="fill-opacity:1;"/><path d="M193.393,105.142c0.02,0.118 0.173,0.184 0.193,0.302c0.376,2.202 0.491,7.3 0.505,7.937c0.226,10.115 -3.247,25.53 -12.313,38.471c-4.192,5.984 -5.216,6.096 -8.776,9.24c-1.536,1.356 -2.109,-0.183 -3.836,0.955c-1.085,0.715 -0.947,-0.839 -4.989,-1.506c-0.838,-0.138 -0.778,-0.274 -1,-0.411c0.864,-1.058 8.369,-5.903 15.849,-13.407c1.243,-1.247 -0.004,-1.306 -1.654,-1.931c-0.671,-0.254 -1.335,-0.294 -0.7,-0.641c3.455,-1.886 5.351,-1.633 8.966,-6.711c0.493,-0.692 -0.16,-0.5 -0.587,-0.455c-3.197,0.336 -3.122,0.734 -3.395,0.685c-0.065,-0.012 -0.156,-0.065 0.225,-0.792c2.937,-5.607 0.922,-10.48 0.918,-10.529c-0.075,-1.122 1.128,-0.759 1.221,-2.892c0.06,-1.373 -6.594,-3.79 -1.528,-10.966c2.705,-3.831 9.936,-6.934 10.902,-7.349Z" style="fill:#c61b1f;fill-opacity:1;"/><path d="M102.874,54.819c0.162,3.461 2.253,12.945 3.895,17.77c7.424,21.815 15.133,29.78 12.759,29.854c-0.648,0.02 -4.206,-3.31 -10.22,-11.701c-7.312,-10.202 -14.803,-21.64 -18.158,-35.43c-0.191,-0.787 -1.166,-6.738 -0.675,-7.219c0.56,-0.548 12.217,4.127 12.389,6.251c0.013,0.158 -0.004,0.317 0.009,0.475Z" style="fill:#f3e8d4;fill-opacity:1;"/><path d="M103.409,46.76c-4.253,-2.312 -5.323,-2.752 -4.336,-2.859c0.822,-0.089 0.738,-0.472 10.141,-1.97c2.302,-0.367 35.332,-6.409 62.696,18.329c1.4,1.266 7.129,5.807 13.483,15.364c7.887,11.862 10.304,24.14 10.362,24.331c0.512,1.707 -0.864,0.109 -3.5,-1.238c-0.154,-0.079 -0.131,-0.072 -0.294,-0.162c-0.014,-0.105 0.133,-0.19 0.119,-0.296c-0.016,-0.12 -0.149,-0.192 -0.2,-0.302c-0.514,-1.098 -0.315,-1.146 -0.67,-2.32c-3.073,-10.148 -11.182,-23.673 -19.847,-31.46c-9.533,-8.565 -9.918,-8.046 -16.026,-11.613c-3.23,-1.886 -19.804,-10.239 -41.81,-7.786c-8.303,0.925 -8.155,1.654 -8.876,1.715c-0.655,0.055 -0.654,-0.003 -1.24,0.267Z" style="fill-opacity:1;"/><path d="M52.623,124.549c3.082,1.268 3.056,1.283 6.213,2.405c0.906,0.322 2.097,9.129 16.518,12.135c7.134,1.487 8.754,0.58 7.998,1.442c-1.65,1.88 -4.826,8.025 -15.134,16.09c-0.602,-0.796 -4.183,-4.302 -7.906,-11.122c-2.423,-4.439 -2.479,-4.403 -4.338,-9.103c-2.043,-5.164 -1.644,-5.261 -3.019,-10.996c-0.113,-0.473 -0.371,-0.434 -0.394,-0.489c-0.048,-0.112 0.11,-0.25 0.062,-0.362Z" style="fill:#c0191c;fill-opacity:1;"/><path d="M170.634,138.537c-0.039,-0.092 -0.185,-0.108 -0.223,-0.2c-0.024,-0.058 1.32,-3.286 0.16,-6.934c-0.025,-0.078 -1.055,-3.318 -0.7,-0.742c0.067,0.486 0.443,3.225 -1.092,6.029c-3.74,6.829 -11.01,4.261 -8.293,-3.653c0.195,-0.567 -0.261,-0.658 -0.458,-0.254c-1.196,2.457 -1.404,3.083 -1.496,3.363c-1.102,3.327 -0.24,4.843 -1.134,3.949c-1.215,-1.215 -3.964,-3.888 -0.609,-9.15c1.035,-1.624 5.215,-5.327 5.771,-5.692c0.112,-0.074 2.583,-1.697 1.124,-1.247c-3.771,1.164 -3.787,1.094 -7.262,2.942c-3.509,1.866 -4.921,5.187 -4.336,2.742c1.154,-4.824 6.489,-6.951 7.251,-7.255c0.175,-0.07 7.448,-2.276 2.668,-1.343c-8.535,1.668 -13.308,-3.829 -13.24,-4.604c0.035,-0.402 0.543,0.154 2.919,0.969c4.611,1.583 12.531,1.569 17.476,-0.809c4.709,-2.264 5.679,-4.383 5.255,-2.791c-1.841,6.905 1.626,11.993 1.718,16.319c0.028,1.296 -0.423,-0.14 -1.131,-1.221c-0.211,-0.322 -2.508,-3.83 -2.729,-3.971c-0.613,-0.389 0.15,1.541 0.193,1.845c0.673,4.713 1.728,7.729 -1.83,11.71Z" style="fill:#f2e7d3;fill-opacity:1;"/><path d="M44.161,71.719c0.617,0 6.179,0.004 7.685,0.608c0.37,0.148 3.721,3.547 2.638,3.421c-6.358,-0.74 -10.117,0.503 -10.172,0.637c-0.155,0.378 3.242,4.441 4.489,5.715c8.626,8.813 9.201,8.373 12.852,11.393c12.813,10.599 46.662,21.996 46.827,22.287c0.313,0.55 -2.005,-0.155 -2.171,-0.205c-2.016,-0.613 -7.936,-1.803 -11.05,-2.84c-13.028,-4.338 -18.205,-6.266 -31.362,-14.083c-9.616,-5.712 -22.237,-16.781 -24.799,-25.584c-0.431,-1.481 4.049,-1.285 5.065,-1.348Z" style="fill:#f2e8d4;fill-opacity:1;"/><path d="M93.602,120.228c-9.429,-1.405 -28.492,-4.085 -45.305,-15.334c-7.476,-5.002 -11.882,-11.603 -11.941,-13.607c-0.045,-1.509 9.101,-1.859 10.179,-0.919c3.064,2.67 4.244,3.148 3.138,3.211c-0.546,0.031 -4.06,0.23 -6.767,0.975c-0.363,0.1 -0.49,0.561 3.016,3.615c10.808,9.412 23.496,13.457 28.024,14.894c19.659,6.237 28.916,6.25 29.692,6.858c1.412,1.106 -8.628,0.331 -10.036,0.307Z" style="fill:#f1e7d3;fill-opacity:1;"/><path d="M53.281,59.011c-0.092,0.017 -1.121,-0.19 -0.568,0.659c0.859,1.317 0.499,1.518 2.886,5.046c1.223,1.808 6.051,9.835 21.776,23.35c11.956,10.276 22.818,16.748 24.932,18.007c1.45,0.864 9.158,5.609 9.19,5.69c0.308,0.788 -0.552,0.277 -9.682,-4.254c-19.757,-9.807 -34.585,-24.345 -40.595,-31.107c-2.68,-3.016 -9.867,-10.56 -12.308,-18.688c-0.648,-2.159 0.586,-2.151 0.769,-2.15c1.542,0.009 10.647,0.064 18.346,5.93c0.004,0.003 0.573,0.724 -0.349,0.311c-1.434,-0.642 -8.87,-2.657 -14.396,-2.793Z" style="fill:#f3e8d5;fill-opacity:1;"/><path d="M75.6,55.669c-0.057,0.002 -1.221,-0.213 -0.987,0.598c1.503,5.212 13.591,26.018 31.677,44.183c4.073,4.091 4.001,4.128 8.236,8.088c0.047,0.044 0.931,0.871 0.193,0.777c-0.283,-0.036 -13.085,-9.236 -19.782,-17.448c-0.467,-0.573 -4.253,-4.545 -9.367,-11.287c-2.592,-3.416 -10.632,-13.741 -15.534,-26.704c-0.208,-0.549 -0.788,-1.436 0.764,-1.417c1.338,0.016 10.747,0.129 16.285,3.843c1.415,0.949 -1.843,0.258 -1.897,0.249c-3.122,-0.528 -4.832,-0.832 -9.588,-0.882Z" style="fill:#f3e9d5;fill-opacity:1;"/><path d="M115.832,58.901c1.296,17.544 9.091,38.607 8.298,38.972c-0.352,0.162 -0.342,-0.099 -2.492,-4.152c-7.284,-13.735 -9.11,-22.008 -11.038,-29.29c-0.324,-1.224 -1.185,-6.182 -1.279,-6.721c-0.257,-1.479 -1.136,-5.705 1.747,-4.004c1.31,0.773 2.799,2.212 3.149,2.575c1.328,1.378 1.512,1.811 1.615,2.619Z" style="fill:#f3e9d5;fill-opacity:1;"/><path d="M73.201,186.229c-1.322,-0.18 -1.319,-0.115 -2.624,-0.443c-1.911,-0.48 1.515,-2.912 4.478,-5.755c1.633,-1.567 12.686,-12.172 21.6,-18.266c4.421,-3.022 4.179,-3.377 4.626,-3.502c0.845,-0.236 -0.343,0.953 -0.405,1.014c-20.656,20.67 -20.982,20.381 -21.562,21.364c-0.096,0.162 -0.103,0.564 2.286,0.581c5.224,0.037 10.319,-2.829 10.737,-3.139c2.794,-2.074 -1.253,2.864 -2.648,3.837c-7.322,5.103 -14.588,4.327 -16.489,4.309Z" style="fill:#f1e6d2;fill-opacity:1;"/><path d="M64.422,177.425c0.055,0.066 0.11,0.131 0.165,0.197c2.693,0.424 5.266,0.055 5.719,-0.009c4.605,-0.66 4.688,-1.143 5.754,-1.702c0.33,-0.173 0.582,0.176 0.028,0.596c-5.732,4.347 -10.534,7.771 -24.019,5.298c-0.661,-0.121 0.472,-0.864 0.543,-0.911c8.401,-5.511 8.418,-5.48 9.145,-5.964c1.831,-1.219 14.812,-8.792 17.14,-10.055c6.294,-3.414 6.191,-3.594 6.772,-3.814c0.447,-0.169 0.514,0.262 0.021,0.571c-1.913,1.196 -8.774,6.262 -9.529,6.818c-11.333,8.367 -11.539,8.242 -11.74,8.976Z" style="fill:#f1e7d4;fill-opacity:1;"/><path d="M91.68,124.52c7.521,0.308 8.126,0.002 7.852,0.569c-0.273,0.564 -12.639,2.688 -28.509,-1.083c-7.039,-1.673 -13.378,-3.408 -20.161,-7.961c-2.631,-1.766 -1.402,-2.392 -1.194,-2.459c4.88,-1.583 5.338,-0.58 7.87,0.873c0.115,0.066 1.437,0.825 1.264,1.081c-0.135,0.201 -2.489,0.755 -0.697,1.377c0.106,0.037 7.457,3.628 20.126,5.927c7.023,1.275 12.204,1.546 13.449,1.677Z" style="fill:#f2e8d5;fill-opacity:1;"/><path d="M99.842,181.875c6.111,-0.624 10.94,-4.356 11.744,-4.722c1.257,-0.572 0.078,3.986 -6.492,7.455c-4.592,2.424 -13.318,2.805 -11.446,-0.883c0.827,-1.628 2.111,-4.158 12.774,-18.913c4.15,-5.742 4.314,-6.3 4.599,-5.782c0.338,0.614 -11.615,21.545 -11.965,22.498c-0.198,0.539 0.203,0.286 0.785,0.347Z" style="fill:#f2e7d4;fill-opacity:1;"/><path d="M52.623,124.549c0.048,0.112 -0.11,0.25 -0.062,0.362c0.024,0.056 0.281,0.016 0.394,0.489c1.375,5.735 0.976,5.832 3.019,10.996c1.859,4.7 1.915,4.664 4.338,9.103c3.723,6.82 7.304,10.326 7.906,11.122c-2.585,2.191 -2.912,1.771 -3.082,1.553c-3.442,-4.41 -3.559,-4.315 -6.492,-9.089c-8.5,-13.841 -10.03,-26.248 -9.946,-26.362c0.211,-0.289 1.795,0.853 3.925,1.826Z" style="fill:#010101;fill-opacity:1;"/><path d="M31.596,112.893c-0.657,-0.063 -0.631,-0.288 -0.637,-0.234c-0.032,0.266 0.359,0.134 1.248,3.107c0.371,1.241 2.444,6.134 2.668,6.663c0.326,0.769 0.357,0.729 0.644,1.513c0.217,0.592 0.224,0.701 0.842,0.674c2.745,6.488 4.502,9.269 4.428,9.398c-0.229,0.4 -1.469,-0.846 -1.743,-1.079c-0.851,-0.645 -6.457,-6.501 -8.457,-11.675c-0.5,-1.295 -2.457,-6.029 -1.37,-11.732c0.279,-1.461 1.033,-0.702 3.59,1.075c3.079,2.14 5.539,5.727 5.93,6.298c-0.478,0.858 -0.008,0.851 0.783,2.307c1.694,3.12 2.409,6.857 2.618,8.584c0.046,0.379 0.04,0.358 0.192,0.708c0.166,0.384 0.283,0.264 0.518,0.483c0.038,2.186 0.225,2.288 -0.097,2.455c-0.781,0.406 -0.13,-0.572 -3.533,-10.424c-0.986,-2.855 -1.16,-3.204 -1.764,-3.862c-0.011,-0.077 -0.096,-0.668 -0.509,-0.821c-0.588,-0.218 0.138,0.839 0.18,0.899c0.345,0.749 2.034,4.42 3.117,9.828c0.719,3.592 -4.414,-8.39 -6.02,-10.973c-0.26,-0.419 -2.304,-3.395 -2.312,-3.414c-0.138,-0.357 -0.404,-0.031 -0.41,-0.004c-0.017,0.081 0.114,0.147 0.096,0.228Z" style="fill:#b19761;fill-opacity:1;"/><path d="M36.96,137.862c-0.037,0.242 -0.154,0.215 -0.071,0.464c0.142,0.428 -0.159,0.417 -0.124,0.469c0.169,0.245 2.341,1.649 2.29,1.945c-0.023,0.133 -0.213,0.196 -0.236,0.329c-0.892,-0.65 -0.885,-0.648 -0.963,-0.702c-1.726,-1.2 -1.725,-1.172 -1.873,-1.277c-6.705,-3.425 -7.215,-3.974 -7.075,-3.363c0.172,0.75 0.904,0.08 8.355,7.105c0.06,0.057 1.272,0.813 0.424,0.814c-0.233,0 -0.225,-0.036 -1.956,-0.659c-3.825,-1.503 -3.719,-1.836 -4.073,-1.798c-1.858,0.197 6.711,3.366 9.323,4.47c0.963,0.407 0.669,0.884 0.3,0.855c-3.149,-0.25 -4.641,-0.373 -8.129,-2.236c-6.426,-3.434 -9.058,-10.801 -9.029,-11.451c0.068,-1.529 6.514,0.839 7.049,1.035c5.854,2.151 7.698,5.31 7.97,5.664c-0.1,0.046 -0.163,0.153 -0.263,0.199c-0.418,0.194 -0.332,-0.111 -0.677,-0.541c-0.368,-0.458 -0.371,-0.423 -1.243,-1.322Z" style="fill:#a68b58;fill-opacity:1;"/><path d="M127.592,90.581c0.174,2.534 1.218,5.549 0.325,4.803c-0.154,-0.128 -5.84,-19.61 -5.858,-31.204c-0.005,-2.861 -0.385,-3.461 1.338,-4.503c1.166,-0.705 2.669,3.219 2.745,4.749c0.149,2.999 -0.165,2.999 0.196,9.347c0.024,0.426 0.067,4.785 0.443,8.158c0.077,0.691 0.04,0.682 0.812,8.649Z" style="fill:#f3e9d7;fill-opacity:1;"/><path d="M83.281,133.669c-11.881,-0.217 -15.495,-6.324 -15.143,-6.861c0.131,-0.2 1.156,0.104 1.252,0.132c1.341,0.398 8.835,2.62 17.25,2.815c10.187,0.235 10.758,-0.805 10.721,-0.065c-0.008,0.167 -5.501,3.715 -14.08,3.979Z" style="fill:#f2e8d4;fill-opacity:1;"/><path d="M136.101,187.201c0.379,0.136 0.486,0.248 0.132,0.758c-0.537,0.773 -0.942,1.047 -1.044,1.115c-0.494,0.334 -0.518,0.261 -6.225,4.1c-3.371,2.267 -4.645,3.661 -6.51,4.498c-0.469,0.229 -0.531,0.173 -0.756,0.65c0.076,0.022 0.151,0.045 0.227,0.067c0.159,-0.09 0.317,-0.18 0.476,-0.27l0.234,-0.074c0.214,-0.068 0.196,-0.065 1.924,-0.677c0.123,0.042 0.083,-0.124 0.205,-0.082c0.028,0.01 -0,0.034 0.278,0.247c0.523,0.399 1.836,-0.611 2.411,-0.854c0.525,-0.221 0.4,-0.345 0.498,-0.913l0.398,-0.181c0.12,0.079 0.061,0.313 0.181,0.392c0.14,0.093 0.136,0.014 0.656,-0.241c0.206,-0.101 0.204,-0.074 0.417,-0.184c0,0 0.641,-0.322 0.696,-0.35c0.208,0.13 0.279,0.715 1.269,0.421c0.045,-0.013 0.564,-0.072 0.613,-0.078c0.866,-0.076 4.985,-3.1 6.803,-3.533c-0.284,0.871 -0.465,0.738 -2.277,1.676c-1.592,0.824 -1.465,1.03 -1.389,1.152c0.032,0.051 0.615,-0.172 0.827,0.583c0.114,0.404 0.198,0.337 0.423,0.532c-4.535,3.273 -6.698,4.348 -14.651,5.135c-4.638,0.459 -4.768,-0.28 -4.599,-0.61c0.846,-1.649 0.598,-1.758 2.332,-4.809c0.118,0.05 0.121,0.252 0.239,0.302c0.037,0.016 1.51,-0.329 1.742,0.977c0.217,1.222 2.081,-1.029 7.969,-4.874c-0.794,-1.063 -1.406,-0.741 -1.377,-1.001c0.085,-0.766 0.323,-1.104 3.581,-2.248c3.115,-1.094 3.422,-0.54 4.296,-1.626Z" style="fill:#a68c5a;fill-opacity:1;"/><path d="M162.711,97.564c-7.671,-0.618 -8.419,0.951 -8.769,0.167c-0.341,-0.763 8.106,-1.197 9.989,-0.991c8.326,0.912 11.79,5.425 10.08,5.872c-1.406,0.368 -3.706,-2.805 -13.435,-1.147c-0.551,0.094 -4.064,0.693 -6.992,-0.013c-1.807,-0.435 -1.782,-0.432 -3.566,-0.875c-1.003,-0.249 -1.133,-0.16 -1.131,-0.406c0.004,-0.494 6.988,-2.348 13.112,-2.183c0.074,0.002 0.883,0.024 0.928,-0.038c0.008,-0.011 -0.198,-0.356 -0.216,-0.387Z" style="fill:#f3ead8;fill-opacity:1;"/><path d="M195.348,135.558c1.824,0.744 1.497,1.831 -0.782,7.068c-4.446,10.218 -13.145,17.522 -13.638,16.857c-0.469,-0.634 5.865,-7.806 10.611,-19.455c1.42,-3.485 1.509,-4.507 3.808,-4.469Z" style="fill:#f1e7d3;fill-opacity:1;"/><path d="M111.601,141.091c-0.748,0.008 -2.574,0.183 -2.459,-0.373c0.023,-0.113 2.853,-3.137 3.105,-3.406c0.595,-0.635 0.371,-0.831 7.197,-8.157c0.603,-0.647 0.681,-1.133 0.967,-0.624c0,0.001 0.025,12.06 0.006,12.198c-0.078,0.556 -2.08,0.377 -2.576,0.377c-5.337,-0.001 -5.331,0.014 -6.24,-0.015Z" style="fill:#f2e8d4;fill-opacity:1;"/><path d="M43.889,137.176c2.59,2.644 2.142,5.997 10.449,17.892c3.953,5.66 4.314,6.113 3.742,6.095c-0.134,-0.004 -6.917,-6.473 -8.045,-8.033c-0.362,-0.501 -3.479,-3.8 -6.422,-9.718c-0.333,-0.67 -3.559,-6.121 -1.116,-6.663c0.574,-0.127 1.295,0.361 1.391,0.427Z" style="fill:#f0e5d1;fill-opacity:1;"/><path d="M170.069,175.52c4.089,-5.12 12.841,-0.861 10.036,3.685c-0.77,1.248 0.815,2.851 -2.323,5.13c-3.042,2.21 -8.91,0.041 -9.55,-0.136c0.123,-0.048 0.095,0.116 0.217,0.069c0.201,-0.078 0.098,-0.186 0.306,-0.272c0.505,-0.21 4.028,-0.485 4.053,-0.489c3.385,-0.525 4.284,-2.596 4.016,-2.867c-1.047,-1.06 -2.137,-1.422 -2.348,-1.493c0.099,-0.08 0.052,-0.27 0.151,-0.35c0,0 0.332,-0.048 0.361,-0.052c0.037,-0.016 1.485,-0.482 2.076,-1.325c0.735,-1.047 -2.793,-1.76 -2.829,-1.764c-3.433,-0.386 -3.425,0.028 -3.835,0.023c-0.122,-0.002 -0.208,-0.158 -0.33,-0.16Z" style="fill:#f1e7d3;fill-opacity:0.99;"/><path d="M157.825,170.08c-0.133,-0.532 -1.248,-4.981 2.291,-6.459c1.054,-0.44 4.193,-1.741 5.634,0.461c0.759,1.161 1.047,0.637 2.014,0.523c1.41,-0.167 2.968,2.759 3.023,4.459c0.089,2.756 -1.675,4.382 -1.972,4.656c-2.598,2.395 -3.573,2.516 -3.946,2.563c0.321,-1.202 3.371,-2.918 3.03,-7.219c-0.163,-2.059 -1.689,-2.234 -2.498,-1.401c-0.802,0.827 -0.795,1.251 -1.167,0.868c-0.08,-0.082 -0.13,-3.472 -0.581,-2.39c-0.327,0.784 -0.205,1.708 -0.626,0.969c-0.221,-0.387 0.628,-2.024 -0.725,-1.303c-3.846,2.049 -3.727,4.004 -4.137,4.214c-0.102,0.052 -0.236,0.007 -0.338,0.059Z" style="fill:#f1e8d4;fill-opacity:1;"/><path d="M212.745,137.16c-0.448,-0.02 -0.452,0.009 -0.824,-0.261c-0.329,-0.239 -0.406,-0.016 -0.902,-0.331c-0.086,-0.054 -0.238,-0.409 -2.933,1.308c-0.455,0.448 -0.515,0.512 -0.725,0.393c-0.107,-0.061 -0.189,-0.16 -0.296,-0.221c1.258,-1.178 1.354,-1.026 3.127,-1.96c1.718,-0.905 -0.373,-0.36 -0.412,-0.341c-9.32,4.499 -9.029,5.009 -11.066,6.177c-1.221,0.7 0.67,-2.956 4.402,-5.639c3.187,-2.291 9.927,-3.968 11.919,-3.868c1.733,0.087 -4.08,11.908 -13.446,13.509c-1.198,0.205 -5.097,0.947 -3.163,-0.496c0.141,0.114 0.153,0.343 0.294,0.457c0.199,0.16 0.173,-0.182 0.716,-0.207c1.275,-0.057 5.375,-1.091 7.605,-2.62c3.796,-2.603 5.442,-5.54 5.703,-5.9Z" style="fill:#ab915c;fill-opacity:1;"/><path d="M147.136,180.698c-1.077,0.247 -1.031,0.342 -2.941,1.227c-5.6,2.595 0.713,5.114 0.993,5.178c1.347,0.307 -1.189,1.479 -0.056,2.234c1.195,0.797 3.014,-0.056 4.23,-0.299c-2.13,2.399 -2.726,4.968 -5.819,3.025c-2.345,-1.473 -0.803,-3.057 -2.187,-3.207c-2.91,-0.315 -3.163,-4.78 -1.85,-6.301c2.107,-2.441 3.385,-3.857 8.803,-2.645c1.504,0.336 2.088,0.111 1.733,0.709c-0.141,0.238 -0.296,-0.062 -2.906,0.079Z" style="fill:#f1e7d3;fill-opacity:1;"/><path d="M158.644,177.059c0.307,0.049 4.939,0.012 4.997,4.001c0.084,5.76 -8.878,5.325 -9.161,0.723c-0.257,-4.189 3.191,-4.519 4.164,-4.723Z" style="fill:#d8ab5f;fill-opacity:1;"/><path d="M162.673,167.818c0.035,-0.815 -0.352,-0.422 -0.383,-0.39c-1.054,1.072 -0.431,1.296 -0.328,1.333c0.109,0.184 0.218,0.368 0.327,0.552c-0.096,0.368 -0.086,0.369 -0.104,0.397c-1.312,2.054 -1.81,6.587 -2.765,5.535c-0.063,-0.07 -1.031,-3.752 -1.596,-5.165c0.102,-0.052 0.236,-0.007 0.338,-0.059c0.411,-0.209 0.292,-2.164 4.137,-4.214c1.353,-0.721 0.504,0.915 0.725,1.303c0.421,0.739 0.3,-0.186 0.626,-0.969c0.451,-1.081 0.502,2.308 0.581,2.39c0.372,0.383 0.366,-0.041 1.167,-0.868c0.808,-0.833 2.334,-0.658 2.498,1.401c0.341,4.301 -2.709,6.017 -3.03,7.219c-0.433,-0.124 -0.848,-0.22 -0.596,-0.69c0.742,-1.382 0.691,-1.393 1.04,-2.921c0.388,-0.163 0.5,-0.07 0.597,-0.493c0.28,-1.227 -0.559,0.083 -0.987,0.534c-0.956,1.327 -1.255,1.078 -2.608,3.158c-1.391,2.138 0.492,-5.673 0.378,-6.783c0.156,-0.937 0.301,-0.908 0.28,-0.988c-0.035,-0.133 -0.265,-0.15 -0.3,-0.283Z" style="fill:#cb1c1d;fill-opacity:1;"/><path d="M149.503,177.016c-0.72,0.101 -0.708,0.028 -1.424,-0.073c0.1,-0.298 0.139,-0.334 -0.126,-0.518c-1.329,-0.924 -2.754,-3.946 -2.438,-5.187c0.408,-1.601 0.67,-1.695 2.319,-1.605c0.519,0.028 1.34,0.773 1.61,0.341c1.541,-2.469 3.188,-0.351 5.04,1.107c1.311,1.031 1.259,1.592 1.961,1.336l0.049,0.486c-0.497,0.12 -0.515,0.205 -0.925,-0.069c-0.161,-0.141 -0.322,-0.282 -0.483,-0.423c-0.201,-0.121 -0.326,-0.347 -0.528,-0.468c-0.512,-0.308 -0.417,0.428 -0.41,0.478c0.053,0.41 0.05,0.394 -0.047,0.805c-0.006,0.082 -0.266,0.074 -0.03,0.399c0.481,0.664 0.505,0.63 0.535,0.694c1.217,2.588 -0.584,1.941 -0.729,1.872c-1.613,-0.767 -1.678,-0.615 -3.158,-1.6c-0.36,0.393 0.085,0.72 1.954,2.135l-0.234,0.292l-0.248,-0.007c-0.028,0.077 -0.055,0.154 -0.083,0.232c1.099,0.37 1.113,0.414 1.143,0.509c0.258,0.812 -2.629,-0.398 -3.749,-0.733Z" style="fill:#cd1d1d;fill-opacity:1;"/><path d="M209.636,109.268c1.434,3.592 0.428,11.429 -5.023,18.475c-0.687,0.888 -0.694,0.854 -2.054,2.435c-0.086,-0.238 -0.24,-0.185 -0.161,-0.446c0.509,-1.684 0.797,-1.506 1.834,-2.92c0.186,-0.287 -0.027,-0.398 2.039,-3.762c0.413,-0.673 1.402,-1.933 0.642,-1.682c-0.431,0.143 -1.874,2.735 -2.096,3.102c-0.486,0.922 -0.477,0.902 -0.849,1.862c-0.523,0.695 -0.544,0.659 -1.159,1.268c-0.155,0.153 -0.643,1.727 -0.968,1.605c-0.118,-0.044 -0.171,-0.201 -0.289,-0.245c3.198,-7.449 3.232,-7.421 5.709,-15.118c0.825,-2.564 -1.412,0.745 -4.827,8.235l-0.245,-0.297c-0.013,-0.171 -0.213,-0.154 -0.039,-0.506c0.464,-0.941 0.458,-0.926 0.904,-1.893c0.178,-0.397 0.177,-0.382 0.786,-1.635c0.213,-0.424 2.077,-4.141 3.017,-5.103c0.423,-0.433 0.6,-0.023 1.095,-0.386c0.417,-0.306 1.013,-0.253 1.103,-0.245c1.14,0.1 0.403,-1.289 -0.497,-1.311c-0.313,-0.008 -0.246,-0.121 -0.523,-0.258c0.269,-0.208 1.47,-1.081 1.598,-1.174Z" style="fill:#b49964;fill-opacity:1;"/><path d="M147.136,180.698c0.662,0.375 4.403,1.324 4.852,1.721c0.915,0.809 0.884,0.877 0.842,0.971c-0.201,0.442 -0.752,-0.877 -4.709,1.105c-2.984,1.494 2.085,0.731 2.11,0.734c1.694,0.254 3.581,-0.354 2.181,0.639l-0.189,0.075c-0.179,0 -0.357,-0.034 -0.536,-0.034c-0.078,0 -0.777,0 -0.974,0.111c-0.133,0.075 -0.144,0.288 -0.277,0.363c0.771,0.027 1.242,0.25 1.974,-0.09l0.223,-0.005c0.129,-0.041 2.286,-0.721 1.691,0.052c-0.064,0.083 -3.281,1.011 -4.961,2.697c-1.217,0.244 -3.035,1.096 -4.23,0.299c-1.133,-0.755 1.403,-1.927 0.056,-2.234c-0.28,-0.064 -6.594,-2.582 -0.993,-5.178c1.91,-0.885 1.864,-0.98 2.941,-1.227Z" style="fill:#cd1d1d;fill-opacity:1;"/><path d="M182.85,175.323c-0.267,-0.345 -0.172,-0.406 -0.871,-1.047c-0.567,-0.52 0.399,-0.638 1.85,-0.944c1.708,-0.361 7.082,-0.234 10.12,1.44c2.056,1.133 2.608,1.128 2.157,1.511c-0.827,0.701 -3.74,1.836 -4.078,1.968c-2.916,1.137 -11.378,1.981 -8.433,0.639c0.851,-0.388 0.924,-1.75 6.467,-1.97c0.177,0.168 0.255,0.8 1.318,0.37c0.201,-0.082 0.021,-0.113 -0.109,-0.28c-0.106,-0.136 -0.116,-0.355 -0.262,-0.444c-0.141,-0.086 -0.355,0.068 -0.496,-0.018c-2.385,-0.553 -7.347,1.14 -7.211,0.427c0.029,-0.153 0.169,-0.269 0.198,-0.421c-0.314,-0.631 -0.335,-0.605 -0.649,-1.23Z" style="fill:#997f4b;fill-opacity:1;"/><path d="M170.069,175.52c0.122,0.002 0.208,0.158 0.33,0.16c0.409,0.005 0.402,-0.409 3.835,-0.023c0.037,0.004 3.564,0.717 2.829,1.764c-0.591,0.843 -2.039,1.309 -2.076,1.325c-0.047,-0.003 -1.551,-0.33 -0.512,0.402c0.211,0.07 1.301,0.433 2.348,1.493c0.268,0.272 -0.63,2.343 -4.016,2.867c-0.025,0.004 -3.548,0.279 -4.053,0.489c-0.207,0.086 -0.105,0.194 -0.306,0.272c-0.122,0.048 -0.095,-0.116 -0.217,-0.069c-0.51,-0.132 -0.508,-0.042 -0.987,-0.21c-0.953,-0.335 0.662,-0.603 0.738,-0.616c0.134,-0.022 1.3,-0.216 1.696,-0.17c0.504,0.058 0.621,0.201 0.822,-0.252c0.028,-0.063 -0.144,-0.106 -0.116,-0.169c-1.529,-0.207 -1.432,-0.482 -2.65,-0.952c-1.294,-0.499 0.271,-0.535 2.218,-1.672c0.861,-0.503 5.926,-1.593 3.083,-1.451c-0.116,0.006 -1.042,0.052 -1.443,0.142c-0.53,0.119 -0.427,-0.41 -0.948,-0.32c-2.86,0.493 -4.741,1.541 -3.557,-0.079c0.57,-0.78 2.506,-2.125 2.982,-2.93Z" style="fill:#d01d1e;fill-opacity:1;"/><path d="M167.522,186.095c0.889,0.122 4.569,1.446 5.473,2.448c2.286,2.533 3.037,6.414 -1.175,8.053c-0.83,0.323 -4.12,4.434 -8.087,0.021c-0.938,-1.043 -1.221,-3.239 -1.296,-3.573c2.63,1.034 2.463,2.285 3.4,2.244c1.988,-0.086 2.251,0.454 3.661,-0.972c0.272,-0.275 2.405,-0.683 2.468,-2.694c0.036,-1.143 -2.458,-4.418 -3.972,-5.036c-0.051,-0.021 -0.035,-0.036 -0.473,-0.492Z" style="fill:#f1e7d4;fill-opacity:1;"/><path d="M151.193,190.798c0.045,2.288 -1.29,4.056 -0.6,5.061c1.66,2.419 3.29,-0.622 4.094,0.4c1.46,1.856 2.899,2.038 4.527,-2.195c0.206,-0.516 0.163,-0.504 0.357,-1.031c0.563,-1.534 2.193,5.506 -1.872,7.499c-2.064,1.012 -3.502,-0.635 -3.898,-0.937c-0.595,-0.453 -1.45,0.621 -3.822,-0.239c-1.128,-0.409 -2.399,-2.469 -2.163,-3.901c0.437,-2.652 1.275,-3.588 3.378,-4.657Z" style="fill:#f1e8d4;fill-opacity:1;"/><path d="M154.576,187.879c0.738,-0.263 1.365,-0.522 1.184,0.62c-0.069,0.438 -0.867,5.476 -0.862,5.479c0.259,0.139 0.59,-0.318 1.672,-2.06c1.281,-2.062 1.163,-2.122 1.333,-2.242c0.381,-0.267 0.858,0.911 0.884,1.469c0.073,1.573 -0.5,1.735 0.426,2.919c-1.628,4.233 -3.067,4.052 -4.527,2.195c-0.804,-1.022 -2.435,2.018 -4.094,-0.4c-0.69,-1.006 0.645,-2.773 0.6,-5.061c0.495,-0.709 0.107,-1.326 0.963,-1.125c0.211,0.05 0.728,-0.445 1.007,-0.646c0.4,-0.243 0.513,-0.098 1.413,-1.148Z" style="fill:#cc1d1c;fill-opacity:1;"/><path d="M156.445,172.416c-0.702,0.256 -0.65,-0.305 -1.961,-1.336c-1.852,-1.458 -3.499,-3.575 -5.04,-1.107c-0.27,0.432 -1.091,-0.313 -1.61,-0.341c-1.65,-0.09 -1.912,0.005 -2.319,1.605c-0.316,1.241 1.108,4.263 2.438,5.187c0.265,0.184 0.226,0.22 0.126,0.518c-1.363,-0.193 -1.381,-0.128 -2.59,-0.775c-2.293,-1.227 -2.687,-4.209 -2.647,-4.708c0.293,-3.636 1.651,-2.808 3.385,-3.983c4.254,-2.883 8.878,-1.474 10.217,4.939Z" style="fill:#f2e9d5;fill-opacity:1;"/><path d="M167.305,186.022l0.217,0.072c0.438,0.456 0.422,0.471 0.473,0.492c1.514,0.618 4.008,3.893 3.972,5.036c-0.063,2.012 -2.197,2.42 -2.468,2.694c-1.411,1.426 -1.673,0.886 -3.661,0.972c-0.937,0.04 -0.769,-1.211 -3.4,-2.244c-0.083,-0.234 -1.314,-3.72 -0.459,-3.071c0.537,0.407 0.378,1.716 1.693,1.938c0.902,0.152 1.677,1.659 1.77,1.84c0.208,0.404 0.705,0.053 0.28,-0.651c-1.279,-2.119 -0.771,-2.467 -1.936,-4.175c-0.801,-1.174 1.385,0.014 1.515,0.131c0.837,0.754 0.738,0.865 1.745,1.35c0.219,0.105 1.826,1.525 1.613,0.743c-0.112,-0.409 -1.341,-1.937 -1.469,-2.097c-0.637,-0.792 -3.055,-2.492 -2.33,-2.748c0.078,-0.028 0.166,-0.018 0.244,-0.045c1.302,1.342 1.268,1.411 1.429,1.408c0.136,-0.002 0.239,-0.158 0.374,-0.16c-0.237,-0.242 -0.218,-0.222 -0.237,-0.242c-0.956,-1.025 0.327,-0.769 0.37,-0.807c0.126,-0.114 0.138,-0.321 0.264,-0.434Z" style="fill:#cc1e1e;fill-opacity:1;"/><path d="M187.853,168.94c0.605,0.364 0.72,0.382 3.43,0.834c1.129,0.438 1.12,0.401 1.213,0.446c0.358,0.157 0.342,0.17 0.722,0.234c0.077,0.008 0.154,0.015 0.231,0.023c0.34,0.184 0.323,0.19 0.691,0.32c1.069,0.093 1.616,0.717 2.706,1.049c0.155,0.088 0.31,0.177 0.465,0.265c0.545,0.225 0.525,0.241 0.714,0.261c0.071,0.048 0.48,0.326 0.969,0.469c0.14,0.111 0.091,0.164 0.264,0.21c0.111,0.029 0.082,0.052 0.189,0.081c0.28,0.139 0.237,0.183 0.262,0.19l0.249,0.23c0.648,0.267 0.637,0.283 0.697,0.292c0.521,0.516 2.274,1.916 0.878,3.556c-2.12,2.49 -3.383,2.627 -4.255,3.162c-1.202,0.287 -1.182,-0.221 -2.859,-0.287c-1.161,-0.046 0.37,-0.279 3.982,-2.923c2.442,-1.787 0.8,-2.58 -0.679,-3.148c-4.876,-1.873 -10.133,-4.035 -13.393,-2.959c-1.306,0.431 -3.895,1.435 -3.51,0.739c0.384,-0.694 2.714,-0.425 6.211,-2.581c0.064,-0.04 0.061,-0.034 0.825,-0.464Z" style="fill:#efe5d0;fill-opacity:0.97;"/><path d="M195.334,154.327c0.469,0.201 0.467,0.197 0.507,0.217c0.678,0.332 0.693,0.139 1.442,0.063c0.226,-0.023 0.45,-0.065 0.677,-0.081c3.438,-0.241 7.308,0.842 7.349,1.01c0.075,0.308 -0.089,0.252 -0.571,0.816c-2.673,3.125 -7.67,5.012 -8.414,5.292c-0.473,-0.842 -0.844,-0.45 -0.934,-0.453c-0.083,-0.785 -0.435,-0.42 -1.229,-0.432c-0.94,-0.014 -0.882,-0.248 -2.409,-0.527c0.067,-0.039 0.163,0.076 0.231,0.037c0.119,-0.069 0.138,-0.255 0.259,-0.321c0.517,-0.28 2.533,0.893 3.098,-0.01c0.375,-0.599 0.596,-0.155 1.242,-0.451c0.494,-0.226 0.634,-0.157 0.679,-0.688c1.581,-0.345 1.573,-0.333 1.707,-0.373c0.234,-0.07 2.494,-0.749 2.836,-1.148c0.112,-0.13 -0.104,-0.384 0.008,-0.515c0.006,-0.63 -0.32,-0.305 -0.941,-0.374c-6.83,-0.755 -12.784,2.629 -12.707,1.628c0.002,-0.032 2.039,-1.718 3.383,-2.347c1.298,-0.608 1.606,-0.879 3.788,-1.345Z" style="fill:#a68c5a;fill-opacity:1;"/><path d="M136.101,187.201c-0.874,1.086 -1.182,0.532 -4.296,1.626c-3.258,1.144 -3.496,1.483 -3.581,2.248c-0.029,0.26 0.583,-0.062 1.377,1.001c-5.888,3.845 -7.752,6.096 -7.969,4.874c-0.232,-1.307 -1.705,-0.961 -1.742,-0.977c-0.118,-0.05 -0.121,-0.252 -0.239,-0.302c1.476,-2.369 2.981,-5.155 5.618,-7.185c0.048,0.117 0.234,0.136 0.282,0.253c0.217,0.523 -1.689,0.926 -0.94,2.12c0.669,1.067 0.672,-0.158 0.697,-0.149c0.113,0.04 0.032,0.288 0.686,0.203c0.155,-0.062 0.31,-0.125 0.466,-0.187l0.262,-0.063c4.402,-2.822 9.016,-3.396 9.379,-3.461Z" style="fill:#ae935f;fill-opacity:1;"/><path d="M189.326,183.811c0.163,-0.384 0.462,-0.51 0.07,-0.646c-2.801,-0.975 -7.652,-0.108 -4.133,-1.005c0.792,-0.202 4.468,-0.268 5.483,-0.067c5.026,0.995 7.571,2.7 8.15,3.088c0.06,0.04 0.625,0.419 0.778,0.452c0.087,0.019 0.16,-0.119 0.247,-0.1c0.149,0.377 0.405,0.521 0.005,0.638c-1.556,0.454 -3.66,2.484 -12.946,2.676c-2,0.041 -2.012,0.016 -2.662,-0.364c0.048,-0.03 0.044,-0.032 0.48,-0.45c-1.779,-0.101 -1.996,-0.188 -2.157,-0.253c-0.463,-0.187 -0.452,0.04 -0.968,0.04c-0.23,-0 -2.72,-0.005 -2.872,-0.077c-0.121,-0.057 -0.145,-0.243 -0.265,-0.3c3.344,-0.661 9.604,0.715 13.087,-0.071c2.158,-0.476 2.237,-0.039 3.291,-0.521c0.052,-0.024 0.697,-0.168 0.758,-0.181c0.11,-0.027 1.523,-0.374 0.62,-1.266c-0.406,-0.401 -0.305,-0.448 -0.546,-0.962c-0.052,-0.085 -0.103,-0.171 -0.155,-0.256c-0.47,0.234 -0.883,0.254 -0.963,0.257c-1.442,-0.375 -3.761,-0.009 -5.301,-0.631Z" style="fill:#a48b56;fill-opacity:1;"/><path d="M159.628,183.706c-0.085,0.089 -0.62,0.648 -1.462,0.481c-0.238,-0.047 -0.311,-0.72 -1.269,0.085c-2.29,-1.008 -1.653,-4.037 -1.576,-4.403c0.57,-2.714 7.982,-3.712 7.731,1.853c-1.365,-0.041 -1.48,0.577 -2.252,0.98c-0.52,0.582 -0.567,0.507 -1.173,1.005Z" style="fill:#b48648;fill-opacity:1;"/><path d="M37.182,154.852c-0.782,0.177 -2.324,0.677 -2.961,0.96c-0.275,0.122 2.075,2.181 3.226,2.92c3.78,2.427 5.676,2.445 6.21,2.451c1.008,0.05 1.756,0.114 3.625,-0.28c2.094,-0.884 2.351,-0.271 4.31,-0.161c1.006,0.057 0.972,0.133 1.904,0.454c1.326,0.456 -0.16,0.82 -0.227,0.837c-6.065,0.697 -6.09,0.899 -9.609,0.149c-2.797,-0.947 -6.07,-1.854 -10.005,-5.893c-1.3,-1.335 4.772,-2.242 4.992,-2.26c6.972,-0.55 10.809,2.683 11.976,3.519l-0.222,0.365c-1.584,-0.486 -1.561,-0.473 -3.146,-0.976c0.012,-0.478 0.052,-0.58 -0.414,-0.679c-0.164,-0.035 -0.145,-0.037 -0.297,-0.076c-0.053,-0.124 0.271,-0.28 -0.226,-0.533c-0.101,-0.051 -0.927,-0.358 -1.188,-0.43c-4.483,-1.237 -7.515,-0.433 -7.948,-0.368Z" style="fill:#a68c56;fill-opacity:1;"/><path d="M135.837,184.714c-1.366,1.902 -3.837,-0.675 -10.568,3.771c-2.637,2.03 -4.142,4.816 -5.618,7.185c-1.734,3.051 -1.487,3.16 -2.332,4.809c-0.169,0.33 -0.039,1.069 4.599,0.61c7.953,-0.787 10.116,-1.862 14.651,-5.135c2.275,-1.943 2.187,-2.594 2.478,-2.176c0.065,0.093 0.14,0.178 0.204,0.271c-7.913,9.539 -22.104,7.488 -22.359,7.384c-0.52,-0.212 -0.559,-1.458 3.17,-7.619c5.171,-8.543 10.34,-8.535 15.775,-9.1Z" style="fill:#cdb274;fill-opacity:1;"/><path d="M208.038,110.442c0.277,0.137 0.21,0.251 0.523,0.258c0.899,0.022 1.637,1.411 0.497,1.311c-0.09,-0.008 -0.686,-0.06 -1.103,0.245c-0.495,0.363 -0.672,-0.046 -1.095,0.386c-0.94,0.961 -2.804,4.679 -3.017,5.103c-0.704,0.006 -2.056,-0.482 -2.229,-0.277c-0.56,0.665 -0.666,0.632 -0.7,1.498c-0.403,0.832 -0.829,1.711 -3.513,11.014c-0.075,-0.099 -0.627,-0.825 -0.528,-1.464c0.465,-3.005 0.617,-3.563 0.85,-4.352c0.389,-1.317 2.508,-8.484 10.316,-13.723Z" style="fill:#ab905c;fill-opacity:1;"/><path d="M212.745,137.16c-0.261,0.359 -1.908,3.297 -5.703,5.9c-2.23,1.529 -6.33,2.564 -7.605,2.62c-0.543,0.024 -0.517,0.367 -0.716,0.207c-0.141,-0.114 -0.153,-0.343 -0.294,-0.457c4.126,-2.172 4.42,-1.445 7.47,-3.055c0.786,-0.415 2.824,-2.031 2.871,-2.134c0.041,-0.09 -0.131,-0.636 -1.138,0.287c-2.104,1.929 -4.369,2.226 -6.988,3.32l-0.312,-0.274c1.64,-1.063 2.21,-1.573 2.385,-1.73c0.373,0.605 0.344,0.634 0.402,0.653c0.064,0.021 1.078,-0.544 1.128,-0.556c1.067,-0.257 2.915,-1.72 3.145,-1.902c1.201,-0.824 1.168,-0.877 1.161,-0.978c-0.049,-0.659 -0.083,-0.638 -0.464,-1.184c2.695,-1.717 2.847,-1.363 2.933,-1.308c0.496,0.314 0.574,0.092 0.902,0.331c0.372,0.27 0.376,0.241 0.824,0.261Z" style="fill:#977d4d;fill-opacity:1;"/><path d="M135.837,184.714c0.029,0.009 0.437,-0.05 0.442,0.421c0.011,1.133 0.033,1.107 0.029,1.203c-0.028,0.712 -5.731,0.57 -9.917,4.059c-0.157,0.156 -0.232,0.073 -0.283,0.28c-0.033,0.136 -0.08,0.099 -0.114,0.234c-0.654,0.086 -0.573,-0.163 -0.686,-0.203c-0.025,-0.009 -0.028,1.217 -0.697,0.149c-0.748,-1.194 1.157,-1.597 0.94,-2.12c-0.048,-0.117 -0.234,-0.136 -0.282,-0.253c6.731,-4.446 9.203,-1.869 10.568,-3.771Z" style="fill:#987e4c;fill-opacity:1;"/><path d="M177.751,192.407c-0.076,-0.106 -0.639,-0.898 -0.619,-1.507c0.006,-0.173 0.053,-0.466 2.165,-0.104c4.53,0.777 6.434,3.825 6.776,4.372c0.686,1.098 -0.569,0.61 -1.023,0.499c-6.819,-1.669 -6.87,-2.787 -7.299,-3.26Z" style="fill:#a98e57;fill-opacity:0.99;"/><path d="M37.182,154.852c0.087,0.619 0.114,1.358 0.954,1.101c0.332,-0.102 0.35,0.113 4.326,-0.319c0.109,0.068 0.15,0.218 0.259,0.287c0.185,0.115 0.208,-0.356 2.724,0.077c0.088,0.015 0.081,0.014 1.099,0.184c0.152,0.039 0.133,0.041 0.297,0.076c0.465,0.099 0.425,0.201 0.414,0.679c-0.398,-0.076 -3.802,-0.731 -5.019,-0.659c-3.69,0.218 -3.82,0.13 -3.957,0.481c-0.257,0.452 -0.67,0.665 -0.148,0.74c0.383,0.055 0.433,-0.095 0.834,0.296c0.721,0.702 1.854,0.743 2.299,0.839c0.02,0.148 -0.281,0.217 -0.261,0.365c0.006,0.041 1.15,0.357 1.251,0.385c0.079,0.022 1.76,-0.056 0.53,0.62c-0.484,0.841 0.18,0.712 1.149,0.73c-0.312,0.127 -0.301,0.102 -0.312,0.127c-0.073,0.163 0.107,0.161 0.035,0.322c-0.534,-0.005 -2.43,-0.024 -6.21,-2.451c-1.151,-0.739 -3.501,-2.798 -3.226,-2.92c0.637,-0.283 2.18,-0.783 2.961,-0.96Z" style="fill:#b39863;fill-opacity:1;"/><path d="M186.481,102.691c-8.197,-0.003 -9.263,2.008 -9.898,0.396c-0.476,-1.208 1.757,-2.53 3.658,-2.442c0.515,0.024 2.682,-0.208 7.452,1.673c0.885,0.349 0.344,0.672 0.227,0.646c-0.728,-0.161 -0.703,-0.191 -1.439,-0.273Z" style="fill:#f3eada;fill-opacity:1;"/><path d="M195.334,154.327c6.551,-1.288 10.749,0.839 10.756,1.059c0.008,0.222 -5.116,7.93 -17.208,8.029c-2.62,0.021 -7.814,-0.672 -5.274,-1.05c0.036,-0.005 0.032,-0.01 0.435,-0.133c0.154,0.071 0.123,0.355 0.277,0.425c0.099,0.045 0.173,-0.146 0.279,-0.17c0.164,-0.037 0.136,0.07 2.092,0.243c2.542,0.151 5.633,0.261 9.631,-1.086c0.744,-0.281 5.742,-2.167 8.414,-5.292c0.482,-0.563 0.646,-0.508 0.571,-0.816c-0.041,-0.168 -3.911,-1.251 -7.349,-1.01c-0.227,0.016 -0.451,0.058 -0.677,0.081c-0.749,0.076 -0.764,0.269 -1.442,-0.063c-0.04,-0.019 -0.038,-0.016 -0.507,-0.217Z" style="fill:#d2b878;fill-opacity:1;"/><path d="M163.224,103.392c0.153,-0.051 0.302,-0.113 0.455,-0.163c1.347,-0.446 -1.741,1.855 0.567,4.065c1.311,1.255 3.297,0.047 3.446,-0.027c0.324,-0.161 0.987,-1.263 1.056,-0.621c0.066,0.616 0.05,0.606 0.255,1.195c0.103,0.297 0.367,1.161 -3.641,1.476c-2.05,0.161 -7.856,-3.622 -2.138,-5.925Z" style="fill:#cf1f21;fill-opacity:1;"/><path d="M163.692,114.446c-3.502,0.082 -3.501,0.004 -3.803,0.044c-0.738,0.099 -0.469,-0.27 -0.439,-0.301c0.021,-0.022 1.804,0.069 5.398,-1.601c2.986,-1.388 6.923,-5.058 7.129,-3.987c0.06,0.31 -2.147,3.945 -6.127,5.28c-1.037,0.348 -1.037,0.298 -2.158,0.565Z" style="fill:#f2eadb;fill-opacity:1;"/><path d="M184.31,184.833c0.898,1.031 1.119,0.49 2.491,0.387c1.835,-0.138 6.001,-0.097 6.236,0.15c0.023,0.024 -0.167,0.257 0.186,0.452c1.161,0.641 1.394,0.054 1.556,0.143c0.47,0.258 0.426,0.292 0.894,0.704c-0.061,0.014 -0.706,0.157 -0.758,0.181c-1.054,0.482 -1.133,0.044 -3.291,0.521c-0.194,-0.114 -0.072,-0.311 -0.575,-0.339c-0.704,-0.039 -2.677,0.336 -7.236,-1.299c-0.833,-0.299 -1.825,-0.418 -0.943,-0.611c0.115,-0.025 0.107,-0.021 1.441,-0.289Z" style="fill:#957c4a;fill-opacity:1;"/><path d="M209.217,108.957l0.419,0.311c-0.128,0.093 -1.329,0.966 -1.598,1.174c-7.808,5.238 -9.927,12.406 -10.316,13.723c-0.233,0.789 -0.386,1.347 -0.85,4.352c-0.099,0.639 0.453,1.365 0.528,1.464c-0.141,0.446 -0.62,2.345 -1.008,1.603c-0.041,-0.079 -0.215,-2.483 -0.134,-3.092c0.496,-3.729 1.589,-12.279 12.96,-19.536Z" style="fill:#c5a86c;fill-opacity:1;"/><path d="M209.217,108.957c0.45,-0.232 0.476,-0.54 0.838,-0.201c1.585,1.484 1.491,13.264 -7.424,22.222c-0.117,-0.193 -0.234,-0.386 -0.351,-0.579l0.279,-0.222c1.36,-1.58 1.367,-1.546 2.054,-2.435c5.45,-7.046 6.456,-14.883 5.023,-18.475l-0.419,-0.311Z" style="fill:#d5ba7a;fill-opacity:1;"/><path d="M200.229,185.27c0.206,0.146 1.773,0.734 0.198,1.361c-0.659,0.262 -8.869,4.637 -20.897,2.068c0.393,-0.425 0.397,-0.515 0.956,-0.405c1.911,0.375 1.908,0.15 3.832,0.188c0.65,0.38 0.662,0.405 2.662,0.364c9.286,-0.192 11.39,-2.222 12.946,-2.676c0.4,-0.117 0.144,-0.261 -0.005,-0.638l0.308,-0.261Z" style="fill:#bea366;fill-opacity:1;"/><path d="M189.326,183.811c-2.475,-0.802 -3.05,-0.36 -6.192,-0.642c-1.379,-0.124 1.373,-1.76 3.345,-1.787c5.312,-0.073 8.087,0.51 13.749,3.889l-0.308,0.261c-0.087,-0.019 -0.16,0.119 -0.247,0.1c-0.152,-0.033 -0.718,-0.412 -0.778,-0.452c-0.579,-0.388 -3.124,-2.092 -8.15,-3.088c-1.015,-0.201 -4.691,-0.135 -5.483,0.067c-3.518,0.897 1.332,0.031 4.133,1.005c0.392,0.137 0.093,0.262 -0.07,0.646Z" style="fill:#b4975a;fill-opacity:1;"/><path d="M181.605,166.785c2.123,-1.277 5.619,-0.148 5.089,0.573c-0.966,1.314 -3.941,1.995 -4.756,2.26c-0.044,-0.129 -0.21,-0.19 -0.254,-0.319c-0.157,-0.457 1.494,-0.806 0.07,-1.553c-0.595,-0.311 -0.473,0.186 -0.56,0.281c-0.077,0.084 -0.1,0.018 -1.178,0.806c-1.115,0.815 -1.346,0.481 -1.656,0.287c1.761,-0.978 1.599,-1.184 3.245,-2.335Z" style="fill:#ae955e;fill-opacity:0.99;"/><path d="M157.939,182.683c-2.221,-1.004 -1.329,-3.425 0.698,-3.609c4.317,-0.392 2.741,4.242 -0.698,3.609Z" style="fill:#efe1b6;fill-opacity:1;"/><path d="M143.724,199.247c0.719,-0.426 0.934,-0.263 1.545,0.196c1.089,1.211 0.842,1.614 -1.18,3.567c-0.131,0.127 -2.322,2.785 -1.855,-0.363c0.333,-2.247 1.28,-3.191 1.49,-3.4Z" style="fill:#a48854;fill-opacity:1;"/><path d="M203.842,117.745c-0.609,1.252 -0.609,1.238 -0.786,1.635c-0.117,-0.008 -0.118,-0.254 -0.235,-0.262c-0.477,-0.032 -0.323,1.805 -1.22,1.519c-0.161,-0.051 -0.357,-0.07 -0.881,1.921c-0.343,1.304 -0.321,1.295 -0.719,2.576c-0.279,0.898 -0.469,0.951 0.028,1.757c-1.325,2.045 -1.146,2.182 -1.335,2.276c-0.464,0.232 -0.184,-0.736 0.724,-4.035c1.46,-5.301 2.153,-5.762 1.495,-6.166c0.035,-0.866 0.14,-0.832 0.7,-1.498c0.173,-0.206 1.525,0.283 2.229,0.277Z" style="fill:#a28653;fill-opacity:1;"/><path d="M195.591,184.184l0.155,0.256c0.241,0.514 0.14,0.561 0.546,0.962c0.904,0.892 -0.51,1.239 -0.62,1.266c-0.467,-0.412 -0.424,-0.446 -0.894,-0.704c-0.162,-0.089 -0.395,0.498 -1.556,-0.143c-0.352,-0.195 -0.163,-0.427 -0.186,-0.452c-0.235,-0.247 -4.401,-0.288 -6.236,-0.15c-1.372,0.103 -1.593,0.644 -2.491,-0.387c3.739,-0.211 3.72,-0.304 7.451,-0.163c1.345,0.051 1.318,0.082 2.639,0.225c0.568,0.061 0.28,-0.346 0.227,-0.453c0.08,-0.004 0.493,-0.023 0.963,-0.257Z" style="fill:#a68b56;fill-opacity:1;"/><path d="M192.977,161.087c1.246,0.378 1.887,0.134 2.412,0.105c0.091,0.003 0.461,-0.389 0.934,0.453c-3.998,1.347 -7.09,1.237 -9.631,1.086c1.024,-0.767 0.932,-1.043 2.209,-1.076c1.569,-0.041 1.549,-0.387 3.094,-0.198c0.558,0.069 0.517,-0.065 0.983,-0.371Z" style="fill:#a08655;fill-opacity:1;"/><path d="M37.182,154.852c0.433,-0.065 3.465,-0.87 7.948,0.368c0.261,0.072 1.087,0.378 1.188,0.43c0.497,0.253 0.174,0.409 0.226,0.533c-1.018,-0.17 -1.011,-0.169 -1.099,-0.184c-2.517,-0.434 -2.539,0.038 -2.724,-0.077c-0.109,-0.068 -0.15,-0.218 -0.259,-0.287c-3.976,0.431 -3.994,0.217 -4.326,0.319c-0.84,0.257 -0.867,-0.482 -0.954,-1.101Z" style="fill:#9d8352;fill-opacity:1;"/><path d="M175.897,162.769c-1.9,2.002 -1.598,2.834 -2.631,2.443c0.332,-0.465 2.279,-3.194 4.659,-5.42c1.102,-1.032 2.843,4.776 -0.285,8.114c-0.126,-0.262 -0.396,-0.292 0.051,-1.027c0.504,-0.666 0.869,-1.961 0.92,-2.14c0.03,-0.122 0.261,-0.116 0.291,-0.238c0.018,-0.075 -0.16,-0.055 -0.099,-0.96c0.097,-1.451 -0.412,-3.314 -0.723,-3.118c-0.217,0.137 -0.132,0.223 -2.183,2.349Z" style="fill:#cdb377;fill-opacity:0.99;"/><path d="M177.729,163.936c-0.312,0.776 -0.302,0.775 -0.371,0.781c-0.199,0.016 -0.349,-0.256 -0.548,-0.24c0.219,-1.377 -0.55,0.029 -2.26,1.331c0.047,-0.198 -0.187,-0.396 -0.14,-0.594c0.012,-0.051 1.397,-1.318 1.521,-1.431c0.074,-0.068 1.08,-0.452 -0.033,-1.016c2.051,-2.126 1.966,-2.212 2.183,-2.349c0.311,-0.196 0.819,1.667 0.723,3.118c-0.06,0.905 0.118,0.885 0.099,0.96c-0.03,0.122 -0.261,0.116 -0.291,0.238c-0.294,-0.267 -0.588,-0.534 -0.882,-0.801Z" style="fill:#b59b68;fill-opacity:0.99;"/><path d="M141.628,175.728c-0.122,0.061 -0.096,-0.126 -0.217,-0.065c-0.561,0.282 -0.449,0.413 -0.5,0.425c-0.251,0.059 -0.506,-0.096 -0.761,-0.13c-1.699,-0.229 -5.514,-0.014 -4.817,0.478c1.795,1.267 5.546,0.636 6.023,0.556c0.592,-0.061 0.584,0.016 0.949,0.401c-0.839,0.173 -4.475,1.31 -8.088,-0.972c-0.705,-0.445 2.74,-1.924 7.41,-0.693Z" style="fill:#ccae6b;fill-opacity:1;"/><path d="M192.977,161.087c-0.465,0.305 -0.424,0.439 -0.983,0.371c-1.545,-0.19 -1.525,0.157 -3.094,0.198c-1.277,0.033 -1.185,0.309 -2.209,1.076c-1.957,-0.173 -1.928,-0.28 -2.092,-0.243c-0.106,0.024 -0.18,0.215 -0.279,0.17c-0.154,-0.071 -0.123,-0.355 -0.277,-0.425c3.237,-1.922 7.638,-1.71 8.933,-1.146Z" style="fill:#856d3e;fill-opacity:1;"/><path d="M38.738,116.9c3.192,3.894 3.996,11.066 4.11,12.081c-0.235,-0.219 -0.352,-0.098 -0.518,-0.483c-0.151,-0.35 -0.146,-0.329 -0.192,-0.708c-0.208,-1.727 -0.924,-5.463 -2.618,-8.584c-0.79,-1.456 -1.26,-1.449 -0.783,-2.307Z" style="fill:#c8a767;fill-opacity:1;"/><path d="M31.596,112.893c1.467,2.964 1.245,3.053 4.764,11.722c-0.618,0.027 -0.625,-0.081 -0.842,-0.674c-0.287,-0.784 -0.318,-0.744 -0.644,-1.513c-0.224,-0.529 -2.296,-5.422 -2.668,-6.663c-0.889,-2.973 -1.28,-2.841 -1.248,-3.107c0.006,-0.054 -0.02,0.171 0.637,0.234Z" style="fill:#dabd7b;fill-opacity:1;"/><path d="M141.628,175.728c0.167,0.068 0.335,0.136 0.502,0.205c-0.531,0.44 -0.695,0.357 -0.774,1.059c-0.477,0.08 -4.228,0.711 -6.023,-0.556c-0.697,-0.492 3.118,-0.707 4.817,-0.478c0.255,0.034 0.511,0.189 0.761,0.13c0.051,-0.012 -0.061,-0.143 0.5,-0.425c0.121,-0.061 0.095,0.126 0.217,0.065Z" style="fill:#a48a56;fill-opacity:1;"/><path d="M178.36,169.12c0.31,0.195 0.541,0.528 1.656,-0.287c1.078,-0.788 1.101,-0.722 1.178,-0.806c0.086,-0.095 -0.035,-0.592 0.56,-0.281c1.425,0.746 -0.227,1.096 -0.07,1.553c0.044,0.129 0.21,0.19 0.254,0.319c-4.72,1.223 -4.963,0.806 -4.964,0.408c-0,-0.209 0.096,-0.157 1.385,-0.906Z" style="fill:#816a3d;fill-opacity:1;"/><path d="M138.984,192.012c0.771,0.794 0.965,0.952 0.266,2.039c-0.065,-0.093 -0.14,-0.178 -0.204,-0.271c-0.29,-0.418 -0.203,0.234 -2.478,2.176c-0.225,-0.195 -0.31,-0.128 -0.423,-0.532c-0.213,-0.755 -0.796,-0.532 -0.827,-0.583c-0.076,-0.123 -0.204,-0.329 1.389,-1.152c1.812,-0.938 1.994,-0.805 2.277,-1.676Z" style="fill:#6d5831;fill-opacity:1;"/><path d="M175.259,181.099c-0.172,1.91 -2.086,1.524 -2.458,1.64c-0.249,0.077 -0.206,0.172 -0.45,0.163c-0.079,-0.003 -0.523,-0.019 -0.946,-0.263c-0.022,-0.077 -0.174,-0.063 -0.196,-0.14c-0.023,-0.084 0.107,-0.161 0.088,-0.246c-0.09,-0.395 -0.865,0.258 -1.654,-0.156c-0.043,-0.023 -0.59,-0.309 -0.206,-0.574c0.088,-0.061 0.996,0.325 1.684,0.163c0.832,-0.196 0.827,-0.112 1.682,-0.121c0.699,-0.008 0.602,-0.286 1.264,-0.464c0.267,-0.072 -0.026,-0.328 0.226,-0.415c0.05,-0.017 0.493,-0.17 0.662,-0.09c0.395,0.188 0.198,0.326 0.306,0.503Z" style="fill:#cd1f20;fill-opacity:1;"/><path d="M41.265,158.633c1.128,0.309 1.121,0.307 1.218,0.334c0.742,0.204 1.199,-0.333 1.226,-0.344c0.074,-0.029 0.159,0.077 0.233,0.048c1.121,0.276 1.098,0.286 2.646,0.717c0.896,0.369 1.861,0.492 0.952,0.821c-0.458,0.166 -0.447,0.13 -1.206,0.283c-0.25,-0.114 -0.269,-0.051 -0.494,-0.225c-0.024,-0.018 -0.003,-0.108 -1.676,-0.103c-0.73,0.002 -0.793,0.279 -1.38,-0.161c1.23,-0.676 -0.452,-0.598 -0.53,-0.62c-0.101,-0.028 -1.245,-0.344 -1.251,-0.385c-0.02,-0.148 0.281,-0.217 0.261,-0.365Z" style="fill:#9a7e4b;fill-opacity:1;"/><path d="M203.968,126.332c0.088,0.16 0.176,0.32 0.264,0.48c-1.037,1.414 -1.325,1.237 -1.834,2.92c-0.079,0.26 0.075,0.207 0.161,0.446l-0.279,0.222c-0.041,0.031 -0.483,0.365 -0.501,0.39c-0.483,0.654 -0.698,0.681 -0.341,1.399c-3.463,3.561 -0.319,-2.305 0.113,-3.229c0.118,0.044 0.171,0.201 0.289,0.245c0.325,0.122 0.813,-1.452 0.968,-1.605c0.616,-0.609 0.636,-0.572 1.159,-1.268Z" style="fill:#796237;fill-opacity:1;"/><path d="M176.647,164.741c-0.001,0.092 -0.235,0.114 0.116,0.738c0.356,0.633 -0.317,0.848 -0.332,0.875c-0.023,0.041 0.061,-0.033 0.551,0.2c-0.05,0.098 0.048,0.231 -0.002,0.329c-0.17,0.331 -0.338,0.176 -0.491,0.537c-0.029,0.068 -0.041,0.15 -0.022,0.222c0.111,0.412 -0.091,0.346 -0.455,0.569c-0.481,0.294 -0.738,0.134 -0.692,0.609c0.012,0.118 0.137,0.206 0.149,0.324c-1.94,0.802 -2.027,0.302 -2.005,0.143c0.011,-0.084 1.441,-1.604 3.183,-4.545Z" style="fill:#7b653a;fill-opacity:1;"/><path d="M133.408,192.995c3.511,-2.002 3.519,-2.119 3.839,-1.987c0.596,0.244 -1.095,1.043 -1.667,1.548c-1.704,1.504 -1.748,1.413 -3.254,2.522c-0.359,0.265 -0.12,0.383 -0.146,0.466c-0.049,0.006 -0.568,0.064 -0.613,0.078c-0.99,0.294 -1.061,-0.291 -1.269,-0.421c0.727,-0.369 0.721,-0.341 1.45,-0.713c1.608,-0.821 1.638,-0.758 1.739,-0.877c0,-0 -0.074,-0.566 -0.08,-0.616Z" style="fill:#937947;fill-opacity:1;"/><path d="M194.653,158.798c0.843,0.843 1.009,0.307 2.608,0.002c-0.045,0.531 -0.185,0.462 -0.679,0.688c-0.647,0.296 -0.868,-0.148 -1.242,0.451c-0.566,0.904 -2.581,-0.269 -3.098,0.01c-0.121,0.065 -0.14,0.252 -0.259,0.321c-0.067,0.039 -0.163,-0.076 -0.231,-0.037c-0.329,-0.025 -2.955,0.213 -1.146,-0.438c1.983,-0.713 1.966,-0.707 4.048,-0.996Z" style="fill:#a38853;fill-opacity:1;"/><path d="M203.056,119.38c-0.447,0.966 -0.441,0.952 -0.904,1.893c-0.174,0.352 0.026,0.335 0.039,0.506c-0.099,0.113 -0.26,0 -0.807,1.206c-0.912,2.01 -0.947,1.971 -0.999,2.154c-0.014,0.048 0.024,0.038 0.336,0.527c-0.338,0.635 -0.299,0.639 -0.691,1.226c-0.497,-0.806 -0.307,-0.859 -0.028,-1.757c0.398,-1.281 0.376,-1.272 0.719,-2.576c0.524,-1.992 0.72,-1.973 0.881,-1.921c0.897,0.286 0.743,-1.551 1.22,-1.519c0.117,0.008 0.118,0.254 0.235,0.262Z" style="fill:#8d7343;fill-opacity:1;"/><path d="M32.31,140.843c-0.037,-0.201 0.301,-0.266 -0.152,-0.823c-0.09,-0.11 -2.756,-2.67 -1.901,-2.62c0.272,0.016 0.123,0.258 2.574,2.233c0.242,0.195 2.757,2.221 2.928,2.548c0.041,0.078 -0.053,0.186 -0.013,0.264c-2.057,-0.889 -2.088,-0.781 -3.437,-1.601Z" style="fill:#876f42;fill-opacity:1;"/><path d="M208.086,137.877c0.381,0.546 0.416,0.526 0.464,1.184c0.007,0.101 0.04,0.154 -1.161,0.978c-0.021,-0.141 -0.305,-0.136 -0.327,-0.278c-0.026,-0.169 0.196,-0.297 0.214,-0.467c0.085,-0.821 -1.621,0.672 -2.549,1.397c-0.339,0.265 -0.306,0.359 -0.981,0.963c-0.292,0.261 -0.328,0.061 -0.544,-0.27c1.859,-1.779 1.971,-1.617 3.863,-3.336c0.107,0.061 0.189,0.16 0.296,0.221c0.21,0.12 0.27,0.055 0.725,-0.393Z" style="fill:#997f4c;fill-opacity:1;"/><path d="M35.432,116.984c0.127,-0.043 0.204,-0.185 0.331,-0.228c1.408,-0.472 3.864,9.596 2.633,6.463c-0.666,-1.695 -2.714,-5.743 -2.963,-6.236Z" style="fill:#9c8250;fill-opacity:1;"/><path d="M178.536,187.441c0.121,0.057 0.145,0.243 0.265,0.3c0.151,0.072 2.642,0.077 2.872,0.077c0.516,0.001 0.505,-0.226 0.968,-0.04c0.161,0.065 0.378,0.152 2.157,0.253c-0.436,0.418 -0.431,0.42 -0.48,0.45c-1.924,-0.038 -1.922,0.188 -3.832,-0.188c-0.56,-0.11 -0.564,-0.02 -0.956,0.405c-0.982,-0.178 -0.947,-0.218 -1.9,-0.519c-1.27,-0.402 0.654,-0.692 0.906,-0.739Z" style="fill:#7f693b;fill-opacity:1;"/><path d="M207.389,140.04c-0.231,0.183 -2.078,1.646 -3.145,1.902c-0.05,0.012 -1.064,0.577 -1.128,0.556c-0.058,-0.019 -0.029,-0.047 -0.402,-0.653l0.488,-0.461c0.216,0.331 0.252,0.531 0.544,0.27c0.675,-0.603 0.641,-0.698 0.981,-0.963c0.928,-0.725 2.634,-2.218 2.549,-1.397c-0.018,0.17 -0.24,0.298 -0.214,0.467c0.021,0.141 0.305,0.136 0.327,0.278Z" style="fill:#846d40;fill-opacity:1;"/><path d="M31.725,119.623c0.126,0.048 0.277,-0.013 0.403,0.034c0.316,0.12 4.075,7.119 4.109,7.164c0.254,0.339 0.163,0.364 -0.009,0.733c-2.051,-2.943 -4.035,-7.03 -4.502,-7.931Z" style="fill:#110e08;fill-opacity:1;"/><path d="M166.319,105.348c-2.333,-0.182 -0.962,-3.172 0.671,-1.977c0.998,0.731 0.791,1.711 -0.671,1.977Z" style="fill:#f9f6ee;fill-opacity:0.99;"/><path d="M159.628,183.706c0.605,-0.498 0.653,-0.423 1.173,-1.005c0.501,1.023 0.619,0.93 0.744,0.904c0.243,-0.051 0.207,0.043 0.463,0.097c-1.15,0.978 -2.729,1.688 -5.111,0.57c0.958,-0.805 1.03,-0.132 1.269,-0.085c0.842,0.167 1.377,-0.392 1.462,-0.481Z" style="fill:#936937;fill-opacity:0.99;"/><path d="M201.811,156.765c-0.112,0.13 0.104,0.384 -0.008,0.515c-0.342,0.399 -2.601,1.077 -2.836,1.148c-0.134,0.04 -0.126,0.028 -1.707,0.373c-1.599,0.305 -1.764,0.841 -2.608,-0.002c0.975,-0.22 0.954,-0.203 1.93,-0.435c2.663,-0.632 2.596,-0.771 5.229,-1.598Z" style="fill:#caad70;fill-opacity:1;"/><path d="M175.897,162.769c1.113,0.563 0.108,0.948 0.033,1.016c-0.123,0.113 -1.509,1.38 -1.521,1.431c-0.047,0.198 0.187,0.396 0.14,0.594c-1.692,1.518 -1.963,0.775 -1.952,0.612c0.014,-0.203 0.054,-0.186 0.669,-1.209c1.032,0.391 0.731,-0.441 2.631,-2.443Z" style="fill:#907849;fill-opacity:1;"/><path d="M110.853,195.024c0.879,0.347 0.871,0.299 1.733,0.626c1.376,0.522 0.891,1.035 0.018,2.235c-1.207,-0.534 -0.701,-1.043 -0.868,-1.45c-0.117,-0.285 -0.947,-0.293 -0.882,-1.411Z" style="fill:#b4a893;fill-opacity:0.09;"/><path d="M177.729,163.936c0.294,0.267 0.588,0.534 0.882,0.801c-0.051,0.179 -0.416,1.474 -0.92,2.14c-0.236,-0.108 -0.473,-0.216 -0.709,-0.324c-0.49,-0.233 -0.574,-0.159 -0.551,-0.2c0.015,-0.027 0.688,-0.243 0.332,-0.875c-0.351,-0.624 -0.117,-0.646 -0.116,-0.738l0.164,-0.263c0.199,-0.016 0.349,0.256 0.548,0.24c0.069,-0.006 0.06,-0.005 0.371,-0.781Z" style="fill:#a18958;fill-opacity:0.99;"/><path d="M36.96,137.862c0.872,0.899 0.874,0.863 1.243,1.322c0.345,0.43 0.26,0.736 0.677,0.541c0.1,-0.046 0.163,-0.153 0.263,-0.199c0.115,0.175 1.34,2.042 1.106,2.364c-0.21,0.29 -1.309,-0.731 -1.43,-0.821c0.023,-0.133 0.213,-0.196 0.236,-0.329c0.052,-0.296 -2.121,-1.7 -2.29,-1.945c-0.035,-0.051 0.266,-0.041 0.124,-0.469c-0.083,-0.249 0.034,-0.222 0.071,-0.464Z" style="fill:#7a6338;fill-opacity:1;"/><path d="M58.565,186.625c-2.311,0.011 -4.289,0.228 -4.302,0.236c-0.382,0.241 -0.28,0.415 -0.739,0.472c-0.388,0.048 -0.334,0.203 -0.722,0.197c-0.364,-0.005 -0.575,0.123 -0.495,-0.227c0.121,-0.531 -0.134,-0.771 0.196,-0.821c0.529,-0.08 0.52,0.216 1.022,0.078c0.142,-0.039 0.145,-0.29 0.284,-0.339c0.322,-0.114 0.33,0.226 4.273,0.112c0.471,-0.014 0.35,0.211 0.483,0.292Z" style="fill:#efe3cd;fill-opacity:0.99;"/><path d="M38.28,156.76c0.861,0.393 0.751,0.978 5.662,1.912c-0.074,0.029 -0.159,-0.077 -0.233,-0.048c-0.027,0.011 -0.484,0.548 -1.226,0.344c-0.097,-0.027 -0.09,-0.025 -1.218,-0.334c-0.445,-0.096 -1.577,-0.137 -2.299,-0.839c-0.401,-0.39 -0.451,-0.241 -0.834,-0.296c-0.522,-0.075 -0.11,-0.287 0.148,-0.74Z" style="fill:#c9aa6c;fill-opacity:1;"/><path d="M155.086,172.409c0.08,0.781 0.479,0.424 0.483,0.423c0.409,0.274 0.428,0.19 0.925,0.069c-0.081,0.846 -0.067,0.832 -0.002,1.679c0.094,1.218 -0.652,-0.738 -2.391,-1.356c0.097,-0.411 0.1,-0.395 0.047,-0.805c-0.006,-0.05 -0.102,-0.786 0.41,-0.478c0.201,0.121 0.326,0.347 0.528,0.468Z" style="fill:#ce2422;fill-opacity:1;"/><path d="M133.408,192.995c0.006,0.049 0.08,0.616 0.08,0.616c-0.101,0.118 -0.131,0.056 -1.739,0.877c-0.729,0.372 -0.723,0.344 -1.45,0.713c-0.056,0.028 -0.696,0.35 -0.696,0.35c-0.214,0.11 -0.212,0.083 -0.417,0.184c-0.52,0.255 -0.516,0.334 -0.656,0.241c-0.12,-0.079 -0.061,-0.313 -0.181,-0.392c2.457,-1.432 2.522,-1.274 5.061,-2.588Z" style="fill:#c0a061;fill-opacity:1;"/><path d="M204.817,124.47c0.222,-0.367 1.664,-2.96 2.096,-3.102c0.76,-0.251 -0.229,1.008 -0.642,1.682c-2.065,3.364 -1.853,3.474 -2.039,3.762c-0.088,-0.16 -0.176,-0.32 -0.264,-0.48c0.372,-0.96 0.364,-0.939 0.849,-1.862Z" style="fill:#0e0b07;fill-opacity:1;"/><path d="M163.053,181.722c-0.212,1.01 -0.177,1.047 -1.045,1.98c-0.256,-0.054 -0.22,-0.148 -0.463,-0.097c-0.125,0.026 -0.243,0.12 -0.744,-0.904c0.771,-0.402 0.887,-1.021 2.252,-0.98Z" style="fill:#9e733b;fill-opacity:0.99;"/><path d="M155.06,188.422c-0.095,0.952 0.004,0.987 -0.233,1.293c-0.116,0.151 -0.724,0.415 -1.127,0.824c-0.703,0.713 -1.434,-0.133 -1.18,-0.29c1.065,-0.659 0.976,-0.801 1.081,-0.785c0.158,0.024 0.298,0.155 0.458,0.145c0.304,-0.019 0.199,-0.145 0.574,-0.848c0.194,-0.363 0.295,-0.235 0.426,-0.339Z" style="fill:#bc1a19;fill-opacity:1;"/><path d="M176.983,166.554c0.236,0.108 0.473,0.216 0.709,0.324c-0.448,0.736 -0.177,0.765 -0.051,1.027c-0.542,0.42 -1.992,1.149 -2.171,1.238c-0.012,-0.118 -0.137,-0.206 -0.149,-0.324c-0.046,-0.475 0.211,-0.315 0.692,-0.609c0.365,-0.223 0.567,-0.157 0.455,-0.569c-0.019,-0.072 -0.007,-0.154 0.022,-0.222c0.153,-0.36 0.322,-0.206 0.491,-0.537c0.05,-0.098 -0.048,-0.231 0.002,-0.329Z" style="fill:#917847;fill-opacity:0.99;"/><path d="M202.435,122.076c-1.005,2.18 -0.957,2.189 -1.715,3.589c-0.312,-0.489 -0.35,-0.478 -0.336,-0.527c0.052,-0.183 0.087,-0.144 0.999,-2.154c0.547,-1.206 0.708,-1.093 0.807,-1.206l0.245,0.297Z" style="fill:#a8894e;fill-opacity:1;"/><path d="M127.95,195.765c-0.098,0.568 0.027,0.692 -0.498,0.913c-0.576,0.243 -1.888,1.253 -2.411,0.854c-0.279,-0.212 -0.25,-0.237 -0.278,-0.247c-0.122,-0.042 -0.083,0.124 -0.205,0.082c1.72,-0.763 1.72,-0.719 3.392,-1.603Z" style="fill:#d2b477;fill-opacity:1;"/><path d="M42.786,160.004c0.587,0.44 0.65,0.163 1.38,0.161c1.673,-0.004 1.652,0.085 1.676,0.103c0.225,0.174 0.244,0.111 0.494,0.225c-1.199,0.212 -1.177,0.213 -2.4,0.241c-0.969,-0.018 -1.632,0.111 -1.149,-0.73Z" style="fill:#a88b55;fill-opacity:1;"/><path d="M167.305,186.022c-0.126,0.114 -0.138,0.321 -0.264,0.434c-0.042,0.038 -1.325,-0.218 -0.37,0.807c0.018,0.02 0,0 0.237,0.242c-0.136,0.002 -0.239,0.158 -0.374,0.16c-0.16,0.003 -0.126,-0.066 -1.429,-1.408c1.051,-0.458 1.07,-0.438 2.2,-0.236Z" style="fill:#b11e1c;fill-opacity:0.99;"/><path d="M142.13,175.932c0.099,0.051 0.475,0.244 1.066,0.888c0.315,0.343 -0.808,0.556 -0.891,0.572c-0.365,-0.385 -0.357,-0.462 -0.949,-0.401c0.079,-0.702 0.242,-0.619 0.774,-1.059Z" style="fill:#7a6436;fill-opacity:1;"/><path d="M179.988,104.433c-0.165,0.033 -3.079,0.612 -2.106,-0.116c0.031,-0.023 4.715,-0.899 2.106,0.116Z" style="fill:#f1f0ea;fill-opacity:0.99;"/><path d="M29.548,138.804c0.036,-0.073 -0.121,-0.155 -0.086,-0.228c0.192,-0.392 2.107,1.425 2.181,1.691c0.102,0.366 -0.178,0.208 -0.203,0.238c-1.077,-0.702 -0.809,-1.005 -1.892,-1.701Z" style="fill:#594b2e;fill-opacity:1;"/><path d="M202.28,130.399c0.117,0.193 0.234,0.386 0.351,0.579c-0.397,0.404 -0.795,0.807 -1.192,1.211c-0.357,-0.719 -0.142,-0.746 0.341,-1.399c0.019,-0.025 0.461,-0.36 0.501,-0.39Z" style="fill:#8c7341;fill-opacity:1;"/><path d="M154.576,187.879c-0.9,1.05 -1.013,0.905 -1.413,1.148c-0.058,-0.136 -0.278,-0.152 -0.336,-0.288c-0.002,-0.004 0.419,-0.512 0.464,-0.55c0.54,-0.446 0.604,-0.247 1.286,-0.31Z" style="fill:#871917;fill-opacity:0.99;"/><path d="M148.088,186.831c-0.148,0.032 -8.895,1.9 -1.882,-0.143c0.509,-0.148 1.398,-0.204 1.415,-0.196c0.228,0.114 0.033,0.25 0.257,0.413c0.108,0.079 0.087,-0.162 0.21,-0.073Z" style="fill:#b91214;fill-opacity:1;"/><path d="M205.404,187.263c0.162,0.256 0.697,0.551 -0.466,1.166c-0.232,0.123 -0.232,0.009 -0.729,-0.219c0.667,-0.406 0.621,-0.428 1.195,-0.946Z" style="fill:#343027;fill-opacity:0.07;"/><path d="M152.222,185.943c0.062,0.116 0.125,0.233 0.187,0.349c-0.732,0.34 -1.203,0.117 -1.974,0.09c0.133,-0.075 0.144,-0.288 0.277,-0.363c0.197,-0.111 0.895,-0.111 0.974,-0.111c0.179,-0 0.357,0.034 0.536,0.034Z" style="fill:#b11a18;fill-opacity:1;"/><path d="M190.512,176.546c0.141,0.086 0.355,-0.068 0.496,0.018c0.147,0.089 0.157,0.309 0.262,0.444c0.13,0.167 0.31,0.199 0.109,0.28c-1.063,0.431 -1.141,-0.202 -1.318,-0.37c0.267,-0.183 0.285,-0.144 0.451,-0.373Z" style="fill:#907846;fill-opacity:1;"/><path d="M204.445,184.697c0.488,-0.187 0.479,-0.175 0.983,-0.136c0.723,0.056 0.541,0.476 -0.056,0.906c-0.518,-0.404 -0.516,-0.4 -0.56,-0.436c-0.206,-0.169 -0.172,-0.173 -0.367,-0.333Z" style="fill:#423d32;fill-opacity:0.06;"/><path d="M162.673,167.818c0.035,0.133 0.265,0.15 0.3,0.283c0.021,0.079 -0.124,0.05 -0.28,0.988c-0.134,0.075 -0.269,0.149 -0.403,0.224c-0.109,-0.184 -0.218,-0.368 -0.327,-0.552c0.349,-0.48 0.337,-0.461 0.711,-0.943Z" style="fill:#af1212;fill-opacity:1;"/><path d="M166.908,187.506c1.339,-0.246 1.152,1.451 0.857,1.255c-0.068,-0.046 -0.685,-0.457 -0.744,-0.706c-0.025,-0.107 0.153,-0.195 0.131,-0.303c-0.023,-0.113 -0.221,-0.133 -0.244,-0.246Z" style="fill:#bb1b1b;fill-opacity:1;"/><path d="M162.673,167.818c-0.374,0.482 -0.362,0.462 -0.711,0.943c-0.103,-0.037 -0.726,-0.261 0.328,-1.333c0.031,-0.031 0.418,-0.425 0.383,0.39Z" style="fill:#e28172;fill-opacity:1;"/><path d="M219.105,130.667c0.119,0.021 1.118,0.197 0.625,1.381c-0.017,0.041 -0.035,0.021 -0.479,0.277c0.009,-0.79 0.141,-0.785 -0.146,-1.658Z" style="fill:#352f25;fill-opacity:0.12;"/><path d="M31.669,78.584c0.046,0.11 0.291,0.698 0.592,1.364c-0.143,0.016 -0.197,0.249 -0.34,0.265c-0.088,0.01 -0.714,-0.823 -0.655,-0.912c0.13,-0.199 0.381,-0.305 0.498,-0.512c0.037,-0.065 -0.131,-0.139 -0.095,-0.204Z" style="fill:#4c4840;fill-opacity:0.05;"/><path d="M210.015,104.53c0.283,0.163 0.291,0.147 0.457,0.433c-0.601,0.246 -0.577,0.265 -1.181,0.51c-0.04,-0.149 -0.08,-0.298 -0.12,-0.447l0.124,-0.294c0.24,-0.067 0.48,-0.135 0.719,-0.202Z" style="fill:#938a79;fill-opacity:0.07;"/><path d="M182.501,54.22c0.509,0.178 0.429,0.266 0.851,0.611c0.104,0.075 0.101,0.25 0.205,0.325c0.216,0.156 0.226,-0.19 0.46,-0.071c0.066,0.034 0.002,0.179 0.069,0.212c0.182,0.509 0.185,0.49 0.503,0.937c-0.031,-0.007 -0.391,-0.088 -0.391,-0.088c-0.033,-0.024 0.07,-0.103 -0.324,-0.399c-0.123,-0.133 -0.028,-0.201 -0.492,-0.47c-0.056,-0.048 0.036,-0.172 -0.019,-0.22c-0.097,-0.083 -0.27,-0.029 -0.367,-0.112c-0.056,-0.048 0.031,-0.168 -0.021,-0.219c-0.052,-0.052 -0.165,0.028 -0.22,-0.021c-0.053,-0.046 0.013,-0.158 -0.037,-0.207c-0.09,-0.088 -0.136,0.059 -0.211,-0.037c-0.084,-0.108 0.079,-0.133 -0.005,-0.241Z" style="fill:#b9ae9b;fill-opacity:0.08;"/><path d="M41.917,63.475c0.283,0.666 0.546,0.922 -0.164,1.12c-0.166,-0.091 -0.333,-0.181 -0.499,-0.272c0.091,-0.207 0.183,-0.414 0.274,-0.621l0.389,-0.228Z" style="fill:#d9cdb7;fill-opacity:0.04;"/><path d="M61.681,188.468c-0.142,1.273 -1.658,0.344 -0.982,-0.025c0.317,-0.173 0.594,-0.086 0.982,0.025Z" style="fill:#ede2cb;fill-opacity:0.99;"/><path d="M214.215,116.009c0.087,0.187 0.182,0.496 0.35,0.969c0.193,0.545 -0.061,0.662 -0.603,0.462c0.085,-0.477 0.169,-0.954 0.254,-1.431Z" style="fill:#2a251c;fill-opacity:0.13;"/><path d="M131.039,30.264c0.83,-0.248 0.828,-0.099 1.676,0.11c-0.85,0.273 -0.902,0.372 -1.676,-0.11Z" style="fill:#bdb39e;fill-opacity:0.04;"/><path d="M123.12,29.535c0.863,-0.084 0.845,-0.078 1.69,0.057c-0.373,0.155 -0.322,0.268 -0.732,0.304c-0.59,0.051 -0.718,-0.368 -0.723,-0.371c-0.066,-0.042 -0.169,0.052 -0.235,0.01Z" style="fill:#cdc1ab;fill-opacity:0.05;"/><path d="M164.922,172.713c0.428,-0.452 1.267,-1.761 0.987,-0.534c-0.097,0.424 -0.209,0.33 -0.597,0.493l-0.39,0.041Z" style="fill:#b11818;fill-opacity:1;"/><path d="M207.504,159.583c0.009,0.205 0.276,0.212 0.024,0.551c-0.258,0.347 -0.153,0.387 -0.183,0.407c-0.343,0.237 -0.273,-0.066 -0.507,-0.407c0.222,-0.184 0.443,-0.367 0.665,-0.551Z" style="fill:#403b2f;fill-opacity:0.06;"/><path d="M160.295,38.803c0.779,0.23 0.997,0.354 1.51,0.816c-0.155,-0.055 -0.337,0.072 -0.492,0.017c-0.265,-0.094 -0.194,-0.23 -0.474,-0.245c-0.064,-0.003 -0.409,-0.021 -0.543,-0.588Z" style="fill:#c0b59f;fill-opacity:0.06;"/><path d="M206.332,160.564c0.012,0.13 0.189,0.206 0.2,0.335c0.001,0.006 -0.347,0.727 -0.629,0.553c-0.129,-0.08 -0.14,-0.289 -0.269,-0.369c0.233,-0.173 0.465,-0.346 0.698,-0.519Z" style="fill:#494135;fill-opacity:0.07;"/><path d="M37.125,117.228c-0.042,-0.06 -0.768,-1.118 -0.18,-0.899c0.414,0.153 0.498,0.745 0.509,0.821l-0.33,0.078Z" style="fill:#967f52;fill-opacity:1;"/><path d="M27.12,104.376c0.548,-0.409 0.707,-0.862 0.888,-0.319c0,0 0.027,0.515 0.03,0.56c-0.141,-0.048 -0.128,-0.04 -0.918,-0.241Z" style="fill:#51493c;fill-opacity:0.09;"/><path d="M206.683,92.949c0.271,0.6 0.37,0.571 0.293,1.224c-0.389,-0.579 -0.539,-0.588 -0.293,-1.224Z" style="fill:#d5c7b0;fill-opacity:0.05;"/><path d="M91.91,33.146c-0.163,0.117 -0.055,0.596 -0.976,0.471c-0.242,-0.033 -0.222,-0.061 -0.444,-0.122c0.724,-0.16 0.693,-0.242 1.42,-0.349Z" style="fill:#b0a593;fill-opacity:0.04;"/><path d="M34.116,83.374c0.753,0.784 -0.27,0.67 -0.524,0.705c0.227,-0.377 0.229,-0.359 0.524,-0.705Z" style="fill:#ded2ba;fill-opacity:0.08;"/><path d="M204.548,87.192c0.627,0.601 0.475,0.689 0.514,1.2c-0.025,-0.033 -0.476,-0.216 -0.514,-1.2Z" style="fill:#c8bba4;fill-opacity:0.09;"/><path d="M184.562,176.239c-0.055,0.078 0.102,0.205 0.047,0.283c-0.182,0.258 -1.023,0.051 -1.11,0.03c0.354,-0.104 0.709,-0.209 1.063,-0.313Z" style="fill:#4e4127;fill-opacity:0.99;"/><path d="M40.003,57.946c0.25,0.698 0.248,0.698 0.265,0.731c-1.333,1.392 -0.293,-0.675 -0.265,-0.731Z" style="fill:#9e9685;fill-opacity:0.04;"/><path d="M143.481,202.895c-0.042,0.035 -0.958,0.797 -0.682,0.001c0.158,-0.457 0.345,-0.366 0.682,-0.001Z" style="fill:#826b3e;fill-opacity:1;"/><path d="M34.573,183.687c0.156,0.083 0.313,0.166 0.469,0.249c-0.129,0.129 -0.111,0.363 -0.24,0.492c-0.057,0.057 -0.546,-0.062 -0.414,-0.265c0.071,-0.108 0.235,-0.147 0.281,-0.267c0.028,-0.071 -0.124,-0.137 -0.096,-0.209Z" style="fill:#aaa18d;fill-opacity:0.05;"/><path d="M98.406,193.347c0.682,0.62 0.056,0.639 0.012,0.616c-0.048,-0.025 -0.037,-0.033 -0.502,-0.448c0.163,-0.056 0.327,-0.112 0.49,-0.169Z" style="fill:#827b6c;fill-opacity:0.04;"/><path d="M122.453,197.672c-0.018,0.149 -0.036,0.299 -0.053,0.448c-0.159,0.09 -0.317,0.18 -0.476,0.27l-0.227,-0.067c0.226,-0.477 0.287,-0.421 0.756,-0.65Z" style="fill:#8f784e;fill-opacity:1;"/><path d="M171.796,45.324c0.095,0.309 0.289,0.531 0.324,0.57c-0.463,-0.069 -0.364,-0.21 -0.726,-0.522c-0.054,-0.046 -0.158,0.033 -0.212,-0.014c0.317,-0.083 0.299,-0.094 0.615,-0.035Z" style="fill:#ccc1ab;fill-opacity:0.07;"/><path d="M175.728,48.498c0.597,0.214 0.579,0.248 0.94,0.772c-0.033,-0.007 -0.413,-0.083 -0.413,-0.083c-0.055,-0.042 0.023,-0.16 -0.029,-0.205c-0.059,-0.05 -0.159,0.008 -0.231,-0.02c-0.04,-0.015 -0.02,-0.034 -0.266,-0.465Z" style="fill:#c8bca6;fill-opacity:0.09;"/><path d="M128.898,197.118c0.009,-0.089 -0.145,-0.141 -0.136,-0.23c0.006,-0.057 0.391,-0.277 0.571,-0.173c0.87,0.501 -0.388,0.407 -0.435,0.403Z" style="fill:#866e42;fill-opacity:1;"/><path d="M107.753,190.449c0.481,0.445 0.265,0.531 0.186,1.168c-0.212,-0.371 -0.132,-0.388 -0.186,-1.168Z" style="fill:#baad99;fill-opacity:0.11;"/><path d="M93.853,190.851c0.02,0.042 0.244,0.525 0.244,0.525c0.067,0.037 0.179,-0.056 0.23,0c0.381,0.416 -0.47,0.058 -0.508,0.042c-0.469,-0.197 -0.1,-0.313 0.033,-0.567Z" style="fill:#f1e5cf;fill-opacity:0.99;"/><path d="M179.569,51.608c0.465,0.106 0.444,0.14 0.707,0.539c-0.492,-0.047 -0.479,-0.098 -0.707,-0.539Z" style="fill:#c6bba4;fill-opacity:0.05;"/><path d="M181.008,52.805c0.457,0.113 0.403,0.189 0.686,0.563c-0.035,-0.004 -0.438,-0.048 -0.438,-0.048c-0.059,-0.037 0.012,-0.154 -0.035,-0.205c-0.082,-0.088 -0.135,0.048 -0.203,-0.051c-0.081,-0.119 0.078,-0.131 -0.009,-0.258Z" style="fill:#cdc1ab;fill-opacity:0.05;"/><path d="M174.988,178.745c-0.029,0.004 -0.361,0.052 -0.361,0.052c-0.099,0.08 -0.052,0.27 -0.151,0.35c-1.039,-0.732 0.465,-0.405 0.512,-0.402Z" style="fill:#de8074;fill-opacity:1;"/><path d="M26.727,89.444c-0.123,0.654 -0.118,0.632 -0.124,0.655c-0.438,-0.537 -0.368,-0.612 -0.329,-0.655c0.025,-0.027 0.034,-0 0.453,-0Z" style="fill:#bdb39d;fill-opacity:0.05;"/><path d="M177.478,104.584c-0.132,0.393 -0.221,0.601 -0.479,0.293c-0.029,-0.034 -0.193,-0.281 0.479,-0.293Z" style="fill:#25241f;fill-opacity:1;"/><path d="M59.683,189.736c0.086,0.06 0.076,0.065 0.358,0.389c-0.328,0.024 -0.487,0.352 -0.485,0.035c0.002,-0.284 0.117,-0.392 0.126,-0.424Z" style="fill:#bdb29e;fill-opacity:0.04;"/><path d="M136.293,203.981c0.228,-0.231 0.172,-0.325 0.5,-0.322c0.314,0.002 0.091,0.158 -0.013,0.446c-0.162,-0.041 -0.324,-0.083 -0.486,-0.124Z" style="fill:#b0a491;fill-opacity:0.13;"/><path d="M75.806,39.366c-0.245,0.158 -0.491,0.316 -0.736,0.474c0.172,-0.472 0.262,-0.393 0.736,-0.474Z" style="fill:#beb39f;fill-opacity:0.06;"/><path d="M200.329,143.575l0.312,0.274c-0.03,0.014 -1.047,0.485 -0.312,-0.274Z" style="fill:#483b21;fill-opacity:1;"/><path d="M126.391,190.398l0.069,0.327c-0.155,0.062 -0.31,0.125 -0.466,0.187c0.033,-0.136 0.08,-0.099 0.114,-0.234c0.051,-0.207 0.126,-0.124 0.283,-0.28Z" style="fill:#816c42;fill-opacity:1;"/><path d="M169.96,44.408c0.443,0.104 0.415,0.15 0.726,0.498c-0.401,-0.199 -0.389,-0.197 -0.726,-0.498Z" style="fill:#a49b89;fill-opacity:0.09;"/><path d="M196.845,171.846c0.437,0.06 0.416,0.041 0.84,0.194l-0.375,0.071c-0.155,-0.088 -0.31,-0.177 -0.465,-0.265Z" style="fill:#9e9584;fill-opacity:0.1;"/><path d="M30.684,85.454c-0.346,0.297 -0.327,0.283 -0.729,0.492c0.311,-0.342 0.274,-0.389 0.729,-0.492Z" style="fill:#a69d8b;fill-opacity:0.11;"/><path d="M156.508,37.218c0.392,0.071 0.409,-0.014 0.738,0.237c-0.246,-0.079 -0.492,-0.158 -0.738,-0.237Z" style="fill:#b8ae9b;fill-opacity:0.08;"/><path d="M51.601,48.014l0.726,0.072c-0.152,0.058 -0.077,0.14 -0.24,0.203c0,0 -0.447,-0.253 -0.486,-0.275Z" style="fill:#c4b8a4;fill-opacity:0.05;"/><path d="M47.75,48.023c0.244,0.004 0.489,0.008 0.733,0.012c-0.45,0.215 -0.447,0.251 -0.485,0.232c-0.173,-0.086 -0.088,-0.164 -0.248,-0.243Z" style="fill:#bbb19c;fill-opacity:0.06;"/><path d="M150.239,154.685c0.062,0.12 0.244,0.145 0.307,0.264c0.05,0.096 -0.339,0.547 -0.331,-0.054c0.001,-0.071 0.024,-0.14 0.025,-0.21Z" style="fill:#f1e6d0;fill-opacity:1;"/><path d="M183.36,174.067c-0.146,0.09 -0.291,0.181 -0.437,0.271c-0.013,-0.103 -0.154,-0.16 -0.167,-0.264c-0.022,-0.171 0.078,-0.078 0.604,-0.007Z" style="fill:#8e7645;fill-opacity:0.99;"/><path d="M155.086,172.409c0.161,0.141 0.322,0.282 0.483,0.423c-0.004,0 -0.403,0.357 -0.483,-0.423Z" style="fill:#b7191a;"/><path d="M197.685,172.04c0.185,0.158 0.142,0.171 0.339,0.333c-0.189,-0.021 -0.169,-0.037 -0.714,-0.261l0.375,-0.071Z" style="fill:#a09685;fill-opacity:0.1;"/><path d="M199.957,173.552c0.152,0.018 0.304,0.035 0.456,0.053c0.08,0.08 0.161,0.16 0.241,0.24c-0.06,-0.01 -0.048,-0.026 -0.697,-0.292Z" style="fill:#9b9282;fill-opacity:0.1;"/><path d="M208.399,100.158c0.154,0.357 0.145,0.337 0.218,0.737c-0.166,-0.363 -0.208,-0.333 -0.218,-0.737Z" style="fill:#afa390;fill-opacity:0.13;"/><path d="M205.351,88.717l0.073,0.189l-0.087,0.255l0.156,0.447c-0.244,-0.422 -0.197,-0.421 -0.142,-0.891Z" style="fill:#9d9483;fill-opacity:0.13;"/><path d="M209.13,104.25c0.055,0.161 0.11,0.322 0.165,0.483l-0.124,0.294c-0.002,-0.034 -0.076,-0.031 -0.078,-0.064c-0.003,-0.057 0.003,-0.053 0.037,-0.713Z" style="fill:#bab19d;fill-opacity:0.15;"/><path d="M152.222,185.943l0.189,-0.075c0.038,0.069 -0.073,0.164 -0.035,0.233c0,0 0.235,0.172 0.256,0.187l-0.223,0.005c-0.062,-0.116 -0.125,-0.233 -0.187,-0.349Z" style="fill:#620f0d;fill-opacity:1;"/><path d="M115.909,29.533c0.51,-0.126 0.497,-0.12 0.982,0.004c-0.327,-0.001 -0.655,-0.002 -0.982,-0.004Z" style="fill:#aca390;fill-opacity:0.06;"/><path d="M199.708,173.322c0.394,0.065 0.4,0.039 0.705,0.283c-0.152,-0.018 -0.304,-0.035 -0.456,-0.053l-0.249,-0.23Z" style="fill:#8c8373;fill-opacity:0.05;"/><path d="M192.495,170.221c0.241,0.078 0.481,0.156 0.722,0.234c-0.38,-0.064 -0.364,-0.077 -0.722,-0.234Z" style="fill:#aaa08b;fill-opacity:0.24;"/><path d="M177.595,198.328c-0.099,0.051 -0.102,-0 -0.202,0.051c-0.024,0.012 -0,-0 -0.28,0.193c0.216,-0.674 0.473,-0.248 0.481,-0.244Z" style="fill:#9f9685;fill-opacity:0.08;"/><path d="M51.358,166.173c-0.22,0.189 -0.208,0.188 -0.483,0.239c0.128,-0.097 0.078,-0.19 0.483,-0.239Z" style="fill:#cfc5b0;fill-opacity:0.23;"/><path d="M183.382,55.277c0.464,0.269 0.369,0.336 0.492,0.47c-0.286,-0.196 -0.274,-0.181 -0.492,-0.47Z" style="fill:#e1d5bc;fill-opacity:0.29;"/><path d="M32.915,84.136c0.153,-0.001 0.306,-0.003 0.459,-0.004c-0.177,0.045 -0.354,0.089 -0.531,0.134l0.073,-0.13Z" style="fill:#bfb49f;fill-opacity:0.13;"/><path d="M50.623,157.548c0,0.089 0.135,0.142 0.135,0.231c0,0 -0.329,0.124 -0.358,0.134l0.222,-0.365Z" style="fill:#40351e;fill-opacity:1;"/><path d="M189.707,61.921c0.223,0.147 0.197,0.142 0.338,0.359c-0.512,-0.19 -0.318,-0.329 -0.338,-0.359Z" style="fill:#b3a693;fill-opacity:0.1;"/><path d="M194.439,68.226c0.224,0.199 0.208,0.193 0.289,0.459c-0.128,-0.153 -0.106,-0.143 -0.289,-0.459Z" style="fill:#ded0b8;fill-opacity:0.26;"/><path d="M193.448,170.478c0.383,0.1 0.364,0.114 0.691,0.32c-0.368,-0.13 -0.351,-0.136 -0.691,-0.32Z" style="fill:#a29b88;fill-opacity:0.24;"/><path d="M172.119,45.894l0.223,0.025c0.081,0.076 0.162,0.153 0.243,0.229c-0.397,-0.069 -0.399,-0.056 -0.428,-0.075c-0.052,-0.033 0.014,-0.147 -0.038,-0.18Z" style="fill:#a79d8b;fill-opacity:0.09;"/><path d="M198.993,172.842c0.151,0.097 0.302,0.194 0.452,0.291c-0.107,-0.028 -0.078,-0.051 -0.189,-0.081c-0.172,-0.046 -0.124,-0.098 -0.264,-0.21Z" style="fill:#958b7d;fill-opacity:0.1;"/><path d="M146.628,182.111c-0.078,-0.014 -0.148,0.087 -0.225,0.072c-0.115,-0.021 -0.311,-0.054 -0.306,-0.17c0.015,-0.357 0.166,0.031 0.532,0.098Z" style="fill:#cd1e1e;fill-opacity:1;"/><path d="M152.673,176.723c-0.078,0.097 -0.156,0.195 -0.234,0.292l0.234,-0.292Z" style="fill:#861414;fill-opacity:1;"/><path d="M165.844,201.439c-0.037,-0.005 -0.457,-0.059 -0.457,-0.059c-0.077,-0.326 0.139,0.018 0.457,0.059Z" style="fill:#f0e5cf;fill-opacity:0.99;"/><path d="M49.94,166.931c-0.314,0.163 -0.292,0.175 -0.489,0.221c0.225,-0.159 0.213,-0.165 0.489,-0.221Z" style="fill:#9c9482;fill-opacity:0.14;"/><path d="M50.875,166.412c-0.256,0.152 -0.223,0.171 -0.481,0.235c0.224,-0.152 0.202,-0.15 0.481,-0.235Z" style="fill:#979080;fill-opacity:0.2;"/><path d="M189.601,177.699c0.204,-0.188 0.137,-0.51 0.299,-0.275c0.158,0.229 -0.109,0.1 -0.299,0.275Z" style="fill:#937b4a;fill-opacity:0.99;"/><path d="M164.217,41.029c0.249,-0.022 0.242,-0.051 0.452,0.069c-0.151,-0.023 -0.301,-0.046 -0.452,-0.069Z" style="fill:#918978;fill-opacity:0.07;"/></g></svg>